<?xml version="1.0" encoding="utf-8"?>
<svg xmlns="http://www.w3.org/2000/svg">
  <defs>
    <!-- arrow-left -->
    <symbol id="arrow-left" viewBox="0 0 24 24">
      <path
        d="M10 5.75L3.75 12L10 18.25M4.5 12H20.25"
        fill="transparent"
        stroke="currentColor"
        stroke-width="1.5"
        stroke-linecap="square"
      />
    </symbol>
    <!-- arrow-right -->
    <symbol id="arrow-right" viewBox="0 0 24 24">
      <path
        d="M14 5.75L20.25 12L14 18.25M19.5 12H3.75"
        fill="transparent"
        stroke="currentColor"
        stroke-width="1.5"
        stroke-linecap="square"
      />
    </symbol>
    <!-- arrow-up-right -->
    <symbol id="arrow-up-right" viewBox="0 0 24 24">
      <path
        d="M18.25 15.25V5.75H8.75M6 18L17.6002 6.39983"
        fill="transparent"
        stroke="currentColor"
        stroke-width="1.5"
        stroke-linecap="square"
      />
    </symbol>
    <!-- square-arrow-top-right -->
    <symbol id="square-arrow-top-right" viewBox="0 0 24 24">
      <path
        d="M18.25 14V20.25H3.75V5.75H9.25M13.75 3.75H20.25V10.25M11 13L19.5 4.5"
        fill="transparent"
        stroke="currentColor"
        stroke-width="1.5"
        stroke-linecap="square"
      />
    </symbol>
    <!-- rescue-ring -->
    <symbol id="rescue-ring" viewBox="0 0 24 24">
      <path
        d="M18.5 5.5L14.8659 9.13411M9.1289 14.8711L5.5 18.5M5.5 5.5L9.1289 9.1289M14.8659 14.8659L18.5 18.5M21.25 12C21.25 17.1086 17.1086 21.25 12 21.25C6.89137 21.25 2.75 17.1086 2.75 12C2.75 6.89137 6.89137 2.75 12 2.75C17.1086 2.75 21.25 6.89137 21.25 12ZM16.25 12C16.25 14.3472 14.3472 16.25 12 16.25C9.65279 16.25 7.75 14.3472 7.75 12C7.75 9.65279 9.65279 7.75 12 7.75C14.3472 7.75 16.25 9.65279 16.25 12Z"
        stroke="currentColor"
        stroke-width="1.5"
        fill="transparent"
      />
    </symbol>
    <!-- bubble-annotation -->
    <symbol id="bubble-annotation" viewBox="0 0 24 24">
      <path
        d="M2.75 8.75C2.75 5.98858 4.98858 3.75 7.75 3.75H16.25C19.0114 3.75 21.25 5.98858 21.25 8.75V15.25C21.25 18.0114 19.0114 20.25 16.25 20.25H2.75V8.75Z"
        stroke="currentColor"
        stroke-width="1.5"
        stroke-linecap="square"
        fill="transparent"
      />
      <path
        d="M6.75 12C6.75 12.4142 7.08579 12.75 7.5 12.75C7.91421 12.75 8.25 12.4142 8.25 12C8.25 11.5858 7.91421 11.25 7.5 11.25C7.08579 11.25 6.75 11.5858 6.75 12ZM11.25 12C11.25 12.4142 11.5858 12.75 12 12.75C12.4142 12.75 12.75 12.4142 12.75 12C12.75 11.5858 12.4142 11.25 12 11.25C11.5858 11.25 11.25 11.5858 11.25 12ZM15.75 12C15.75 12.4142 16.0858 12.75 16.5 12.75C16.9142 12.75 17.25 12.4142 17.25 12C17.25 11.5858 16.9142 11.25 16.5 11.25C16.0858 11.25 15.75 11.5858 15.75 12Z"
        fill="currentColor"
        stroke="currentColor"
        stroke-width="1.5"
        stroke-linecap="square"
      />
    </symbol>
    <!-- megaphone -->
    <symbol id="megaphone" viewBox="0 0 24 24">
      <path
        d="M18.2461 2.75087H18.9961V1.73438L18.0248 2.03426L18.2461 2.75087ZM18.2461 19.2509L18.0248 19.9675L18.9961 20.2674V19.2509H18.2461ZM2.74609 14.4652H1.99609V15.0186L2.52483 15.1818L2.74609 14.4652ZM2.74609 7.53658L2.52483 6.81996L1.99609 6.98322V7.53658H2.74609ZM13.2825 18.5008L13.5325 17.7937L12.1182 17.2938L11.8683 18.001L13.2825 18.5008ZM18.2461 14.7509C20.3172 14.7509 21.9961 13.072 21.9961 11.0009H20.4961C20.4961 12.2435 19.4887 13.2509 18.2461 13.2509V14.7509ZM18.2461 8.75087C19.4887 8.75087 20.4961 9.75824 20.4961 11.0009H21.9961C21.9961 8.92981 20.3172 7.25087 18.2461 7.25087V8.75087ZM17.4961 2.75087V19.2509H18.9961V2.75087H17.4961ZM18.4674 18.5343L2.96735 13.7486L2.52483 15.1818L18.0248 19.9675L18.4674 18.5343ZM18.0248 2.03426L2.52483 6.81996L2.96735 8.2532L18.4674 3.46749L18.0248 2.03426ZM3.49609 14.4652V7.53658H1.99609V14.4652H3.49609ZM9.74609 19.5009C8.50345 19.5009 7.49609 18.4935 7.49609 17.2509H5.99609C5.99609 19.322 7.67503 21.0009 9.74609 21.0009V19.5009ZM11.8683 18.001C11.559 18.8759 10.7246 19.5009 9.74609 19.5009V21.0009C11.38 21.0009 12.7681 19.9563 13.2825 18.5008L11.8683 18.001ZM7.49609 17.2509V15.7509H5.99609V17.2509H7.49609ZM5.99829 6.25087V15.7509H7.49829V6.25087H5.99829Z"
        fill="currentColor"
      />
    </symbol>
    <!-- graduate-cap -->
    <symbol id="graduate-cap" viewBox="0 0 24 24">
      <path
        d="M4.75081 10.9688V16.6406L12.0008 20.25L19.2508 16.6406V10.9688M23.1009 9.75V15.25M12.0008 3.75L1.80078 9L12.0008 14.25L22.2009 9L12.0008 3.75Z"
        stroke="currentColor"
        stroke-width="1.5"
        stroke-linecap="square"
        fill="transparent"
      />
    </symbol>
    <!-- play-circle -->
    <symbol id="play-circle" viewBox="0 0 24 24">
      <path d="M10 15.75V8.25L15.5 12L10 15.75Z" fill="currentColor" />
      <path
        fill-rule="evenodd"
        clip-rule="evenodd"
        d="M12 3.5C7.30558 3.5 3.5 7.30558 3.5 12C3.5 16.6944 7.30558 20.5 12 20.5C16.6944 20.5 20.5 16.6944 20.5 12C20.5 7.30558 16.6944 3.5 12 3.5ZM2 12C2 6.47715 6.47715 2 12 2C17.5228 2 22 6.47715 22 12C22 17.5228 17.5228 22 12 22C6.47715 22 2 17.5228 2 12Z"
        fill="currentColor"
      />
    </symbol>
    <!-- play -->
    <symbol id="play" viewBox="0 0 24 24">
      <path
        d="M5.75 3.31131L20.5208 12L5.75 20.6887V3.31131Z"
        stroke="currentColor"
        stroke-width="1.5"
        fill="transparent"
      />
    </symbol>
    <!-- book -->
    <symbol id="book" viewBox="0 0 24 24">
      <path
        d="M19.25 2.75H20V2H19.25V2.75ZM19.25 21.25V22H20V21.25H19.25ZM19.25 16.75V17.5H20V16.75H19.25ZM8.75 6.25H8V7.75H8.75V6.25ZM15.25 7.75H16V6.25H15.25V7.75ZM8.75 10.25H8V11.75H8.75V10.25ZM12.25 11.75H13V10.25H12.25V11.75ZM6.75 3.5H19.25V2H6.75V3.5ZM18.5 2.75V21.25H20V2.75H18.5ZM19.25 20.5H6.75V22H19.25V20.5ZM5.5 19.25V4.75H4V19.25H5.5ZM6.75 20.5C6.05964 20.5 5.5 19.9404 5.5 19.25H4C4 20.7688 5.23122 22 6.75 22V20.5ZM6.75 2C5.23122 2 4 3.23122 4 4.75H5.5C5.5 4.05964 6.05964 3.5 6.75 3.5V2ZM18.5 12V16.75H20V12H18.5ZM19.25 16H7V17.5H19.25V16ZM7 22H10V20.5H7V22ZM4 19C4 20.6569 5.34315 22 7 22V20.5C6.17157 20.5 5.5 19.8284 5.5 19H4ZM7 16C5.34315 16 4 17.3431 4 19H5.5C5.5 18.1716 6.17157 17.5 7 17.5V16ZM8.75 7.75H15.25V6.25H8.75V7.75ZM8.75 11.75H12.25V10.25H8.75V11.75Z"
        fill="currentColor"
      />
    </symbol>
    <!-- bookmark-check -->
    <symbol id="bookmark-check" viewBox="0 0 24 24">
      <path
        d="M19.25 2.75H20V2H19.25V2.75ZM19.25 21L18.8877 21.6567L20 22.2704V21H19.25ZM4.75 21H4V22.2704L5.11231 21.6567L4.75 21ZM4.75 2.75V2H4V2.75H4.75ZM12 17L12.3623 16.3433L12 16.1434L11.6377 16.3433L12 17ZM9.88033 9.81968L9.35 9.28935L8.28934 10.35L8.81967 10.8803L9.88033 9.81968ZM11 12L10.4697 12.5303L11 13.0607L11.5303 12.5303L11 12ZM15.3803 8.68034L15.9107 8.15001L14.85 7.08935L14.3197 7.61968L15.3803 8.68034ZM18.5 2.75V21H20V2.75H18.5ZM5.5 21V2.75H4V21H5.5ZM4.75 3.5H19.25V2H4.75V3.5ZM19.6123 20.3433L12.3623 16.3433L11.6377 17.6567L18.8877 21.6567L19.6123 20.3433ZM11.6377 16.3433L4.38769 20.3433L5.11231 21.6567L12.3623 17.6567L11.6377 16.3433ZM8.81967 10.8803L10.4697 12.5303L11.5303 11.4697L9.88033 9.81968L8.81967 10.8803ZM11.5303 12.5303L15.3803 8.68034L14.3197 7.61968L10.4697 11.4697L11.5303 12.5303Z"
        fill="currentColor"
      />
    </symbol>
    <!-- shield-check -->
    <symbol id="shield-check" viewBox="0 0 24 24">
      <path
        d="M8.75 12L10.9167 14.25L15.25 9.75M12 2.25L3.75 5.75V13C3.75 17.5563 7.44365 21.25 12 21.25C16.5563 21.25 20.25 17.5563 20.25 13V5.75L12 2.25Z"
        stroke="currentColor"
        stroke-width="1.5"
        stroke-linecap="square"
        fill="transparent"
      />
    </symbol>
    <!-- square-check -->
    <symbol id="square-check" viewBox="0 0 24 24">
      <path
        d="M20.25 3.75H21V3H20.25V3.75ZM20.25 20.25V21H21V20.25H20.25ZM3.75 20.25H3V21H3.75V20.25ZM3.75 3.75V3H3V3.75H3.75ZM10.9968 14.4142L10.4664 14.9445L10.9968 15.4749L11.5271 14.9445L10.9968 14.4142ZM16.0271 10.4445L16.5574 9.91419L15.4968 8.85353L14.9664 9.38386L16.0271 10.4445ZM9.52711 11.8839L8.99678 11.3535L7.93612 12.4142L8.46645 12.9445L9.52711 11.8839ZM19.5 3.75V20.25H21V3.75H19.5ZM20.25 19.5H3.75V21H20.25V19.5ZM4.5 20.25V3.75H3V20.25H4.5ZM3.75 4.5H20.25V3H3.75V4.5ZM11.5271 14.9445L16.0271 10.4445L14.9664 9.38386L10.4664 13.8839L11.5271 14.9445ZM8.46645 12.9445L10.4664 14.9445L11.5271 13.8839L9.52711 11.8839L8.46645 12.9445Z"
        fill="currentColor"
      />
    </symbol>
    <!-- square-check-empty -->
    <symbol id="square-check-empty" viewBox="0 0 24 24">
      <path
        d="M20.25 3.75H21V3H20.25V3.75ZM20.25 20.25V21H21V20.25H20.25ZM3.75 20.25H3V21H3.75V20.25ZM3.75 3.75V3H3V3.75H3.75ZM19.5 3.75V20.25H21V3.75H19.5ZM20.25 19.5H3.75V21H20.25V19.5ZM4.5 20.25V3.75H3V20.25H4.5ZM3.75 4.5H20.25V3H3.75V4.5Z"
        fill="currentColor"
      />
    </symbol>
    <!-- folder -->
    <symbol id="folder" viewBox="0 0 24 24">
      <path
        d="M16.25 5.75H20.25V10.75M20.25 10.75H21.25V20.25H2.75V7.75H3.75M20.25 10.75H16.25M3.75 7.75V3.75H16.25V10.75M3.75 7.75H8.75L11.75 10.75H16.25"
        stroke="currentColor"
        stroke-width="1.5"
        fill="transparent"
      />
    </symbol>
    <!-- circle-question-mark -->
    <symbol id="circle-question-mark" viewBox="0 0 24 24">
      <path
        d="M9.75 9.25V7.75H14.25V10.5L12 12V13.25M12 16.25V16.26M21.25 12C21.25 17.1086 17.1086 21.25 12 21.25C6.89137 21.25 2.75 17.1086 2.75 12C2.75 6.89137 6.89137 2.75 12 2.75C17.1086 2.75 21.25 6.89137 21.25 12Z"
        stroke="currentColor"
        stroke-width="1.5"
        stroke-linecap="square"
        fill="transparent"
      />
    </symbol>
    <!-- circle-arrow -->
    <symbol id="circle-arrow" viewBox="0 0 24 24">
      <path
        d="M13 21C13.5523 21 14 20.5523 14 20C14 19.4477 13.5523 19 13 19C12.4477 19 12 19.4477 12 20C12 20.5523 12.4477 21 13 21Z"
        fill="currentColor"
      />
      <path
        d="M21 11C21 10.4477 20.5523 9.99998 20 9.99998C19.4477 9.99998 19 10.4477 19 11C19 11.5523 19.4477 12 20 12C20.5523 12 21 11.5523 21 11Z"
        fill="currentColor"
      />
      <path
        d="M19.9295 14.2679C20.4078 14.5441 20.5716 15.1557 20.2955 15.634C20.0193 16.1123 19.4078 16.2761 18.9295 16C18.4512 15.7238 18.2873 15.1123 18.5634 14.634C18.8396 14.1557 19.4512 13.9918 19.9295 14.2679Z"
        fill="currentColor"
      />
      <path
        d="M17.3676 19.2942C17.8459 19.0181 18.0098 18.4065 17.7336 17.9282C17.4575 17.4499 16.8459 17.286 16.3676 17.5621C15.8893 17.8383 15.7254 18.4499 16.0016 18.9282C16.2777 19.4065 16.8893 19.5703 17.3676 19.2942Z"
        fill="currentColor"
      />
      <path
        d="M18.9269 7.99998C18.4487 8.27612 17.8371 8.11225 17.5609 7.63396C17.2848 7.15566 17.4487 6.54407 17.9269 6.26793C18.4052 5.99179 19.0168 6.15566 19.293 6.63396C19.5691 7.11225 19.4052 7.72384 18.9269 7.99998Z"
        fill="currentColor"
      />
      <path
        d="M10 14.75V14H8.5V14.75H10ZM9.25 20.25V21H10V20.25H9.25ZM3.75 19.5H3V21H3.75V19.5ZM8.5 14.75V20.25H10V14.75H8.5ZM9.25 19.5H3.75V21H9.25V19.5ZM4.5 12C4.5 7.85786 7.85786 4.5 12 4.5V3C7.02944 3 3 7.02944 3 12H4.5ZM9.27283 18.989C6.47789 17.8975 4.5 15.1788 4.5 12H3C3 15.8172 5.37607 19.0775 8.72717 20.3862L9.27283 18.989ZM12 4.5C13.414 4.5 14.7344 4.89056 15.8619 5.56926L16.6355 4.28413C15.281 3.46879 13.6941 3 12 3V4.5Z"
        fill="currentColor"
      />
    </symbol>
    <!-- trash-can -->
    <symbol id="trash-can" viewBox="0 0 24 24">
      <path
        d="M5.75 5.75V21.25H18.25V5.75M5.75 5.75H18.25M5.75 5.75H3.75M18.25 5.75H20.25M14 10.75V16.25M10 10.75V16.25M9.02154 5.38866C9.19999 3.90218 10.4654 2.75 12 2.75C13.5346 2.75 14.8 3.90218 14.9785 5.38866"
        stroke="currentColor"
        stroke-width="1.5"
        stroke-linecap="square"
        fill="transparent"
      />
    </symbol>
    <!-- settings-gear -->
    <symbol id="settings-gear" viewBox="0 0 24 24">
      <path
        d="M9.225 5.525L6.21875 4.83125L4.83125 6.21875L5.525 9.225L2.75 11.075V12.925L5.525 14.775L4.83125 17.7812L6.21875 19.1687L9.225 18.475L11.075 21.25H12.925L14.775 18.475L17.7812 19.1687L19.1687 17.7812L18.475 14.775L21.25 12.925V11.075L18.475 9.225L19.1687 6.21875L17.7812 4.83125L14.775 5.525L12.925 2.75H11.075L9.225 5.525Z"
        stroke="currentColor"
        stroke-width="1.5"
        fill="transparent"
      />
      <path
        d="M14.75 12C14.75 13.5188 13.5188 14.75 12 14.75C10.4812 14.75 9.25 13.5188 9.25 12C9.25 10.4812 10.4812 9.25 12 9.25C13.5188 9.25 14.75 10.4812 14.75 12Z"
        stroke="currentColor"
        stroke-width="1.5"
        fill="transparent"
      />
    </symbol>
    <!-- floppy-disk-1 -->
    <symbol id="floppy-disk-1" viewBox="0 0 24 24">
      <path
        d="M7.75 3.75V8.25H16.25V3.75M3.75 3.75V20.25H20.25V6.75L17.25 3.75H3.75ZM7.75 12.75V20.25H16.25V12.75H7.75Z"
        stroke="currentColor"
        stroke-width="1.5"
        stroke-linecap="square"
        fill="transparent"
      />
    </symbol>
    <!-- floppy-disk-2 -->
    <symbol id="floppy-disk-2" viewBox="0 0 24 24">
      <path
        d="M8.75 4V8.25H15.25V4M3.75 3.75V20.25H20.25V6.75L17.25 3.75H3.75ZM15.25 14.25C15.25 16.0449 13.7949 17.5 12 17.5C10.2051 17.5 8.75 16.0449 8.75 14.25C8.75 12.4551 10.2051 11 12 11C13.7949 11 15.25 12.4551 15.25 14.25Z"
        stroke="currentColor"
        stroke-width="1.5"
        stroke-linecap="square"
        fill="transparent"
      />
    </symbol>
    <!-- medal -->
    <symbol id="medal" viewBox="0 0 24 24">
      <path
        d="M7.75 15.25V22L12 20L16.25 22V15.25M19.25 9C19.25 13.0041 16.0041 16.25 12 16.25C7.99594 16.25 4.75 13.0041 4.75 9C4.75 4.99594 7.99594 1.75 12 1.75C16.0041 1.75 19.25 4.99594 19.25 9Z"
        stroke="currentColor"
        stroke-width="1.5"
        stroke-linecap="square"
        fill="transparent"
      />
    </symbol>
    <!-- wreath -->
    <symbol id="wreath" viewBox="0 0 24 24">
      <path
        d="M9.40545 18.1053C7.83173 19.4414 6.26907 19.2749 4.6926 17.6057C8.35815 13.9616 12.9218 19.2418 8.8818 21.25M14.5945 18.1053C16.1683 19.4414 17.7309 19.2749 19.3074 17.6057C15.6419 13.9616 11.0782 19.2418 15.1182 21.25M6.78495 15.166C6.20088 12.6898 4.69907 11.8277 2.25 12.563C2.83406 15.0392 4.33587 15.9012 6.78495 15.166ZM5.57581 11.7024C6.31536 9.26759 5.44829 7.77454 2.95755 7.19388C2.218 9.62867 3.08507 11.1217 5.57581 11.7024ZM6.71761 2.75C4.57685 4.14255 4.27572 5.84039 5.8083 7.87688C7.94907 6.48432 8.2502 4.78649 6.71761 2.75ZM17.2151 15.166C17.7991 12.6898 19.3009 11.8277 21.75 12.563C21.1659 15.0392 19.6641 15.9012 17.2151 15.166ZM18.4242 11.7024C17.6846 9.26759 18.5517 7.77454 21.0424 7.19388C21.782 9.62867 20.9149 11.1217 18.4242 11.7024ZM17.2824 2.75C19.4232 4.14255 19.7243 5.84039 18.1917 7.87688C16.0509 6.48432 15.7498 4.78649 17.2824 2.75Z"
        stroke="currentColor"
        stroke-width="1.5"
        stroke-linecap="square"
        fill="transparent"
      />
    </symbol>
    <!-- chevron-down-large -->
    <symbol id="chevron-down-large" viewBox="0 0 24 24">
      <path
        d="M21.25 9.75L12 15.25L2.75 9.75"
        stroke="currentColor"
        stroke-width="1.5"
        stroke-linecap="square"
        fill="transparent"
      />
    </symbol>
    <!-- chevron-bottom -->
    <symbol id="chevron-bottom" viewBox="0 0 24 24">
      <path
        d="M20 9L12 17L4 9"
        stroke="currentColor"
        stroke-width="1.5"
        stroke-linecap="square"
        fill="transparent"
      />
    </symbol>
    <!-- chevron-right -->
    <symbol id="chevron-right" viewBox="0 0 24 24">
      <path
        d="M9 4L17 12L9 20"
        stroke="currentColor"
        stroke-width="1.5"
        stroke-linecap="square"
        fill="transparent"
      />
    </symbol>
    <!-- chevron-left -->
    <symbol id="chevron-left" viewBox="0 0 24 24">
      <path
        d="M15 20L7 12L15 4"
        stroke="currentColor"
        stroke-width="1.5"
        stroke-linecap="square"
        fill="transparent"
      />
    </symbol>
    <!-- sparkle -->
    <symbol id="sparkle" viewBox="0 0 24 24">
      <path
        fill-rule="evenodd"
        clip-rule="evenodd"
        d="M22 12C15.0556 12 12 15.0556 12 22C12 15.0556 8.94444 12 2 12C8.94444 12 12 8.94444 12 2C12 8.94444 15.0556 12 22 12Z"
        stroke="currentColor"
        stroke-width="1.5"
        fill="transparent"
      />
    </symbol>
    <!-- arrow-box-left -->
    <symbol id="arrow-box-left" viewBox="0 0 24 24">
      <path
        d="M11.25 20.25H3.75V3.75H11.25M9 12H19.5M15.75 16.5L20.25 12L15.75 7.5"
        stroke="currentColor"
        stroke-width="1.5"
        stroke-linecap="square"
        fill="transparent"
      />
    </symbol>
    <!-- lock -->
    <symbol id="lock" viewBox="0 0 24 24">
      <path
        d="M4.75 9.75V9H4V9.75H4.75ZM19.25 9.75H20V9H19.25V9.75ZM19.25 21.25V22H20V21.25H19.25ZM4.75 21.25H4V22H4.75V21.25ZM15.5 9.75C15.5 10.1642 15.8358 10.5 16.25 10.5C16.6642 10.5 17 10.1642 17 9.75H15.5ZM7 9.75C7 10.1642 7.33579 10.5 7.75 10.5C8.16421 10.5 8.5 10.1642 8.5 9.75H7ZM12.75 14V13.25H11.25V14H12.75ZM11.25 17V17.75H12.75V17H11.25ZM4.75 10.5H19.25V9H4.75V10.5ZM18.5 9.75V21.25H20V9.75H18.5ZM19.25 20.5H4.75V22H19.25V20.5ZM5.5 21.25V9.75H4V21.25H5.5ZM15.5 7V9.75H17V7H15.5ZM8.5 9.75V7H7V9.75H8.5ZM12 3.5C13.933 3.5 15.5 5.067 15.5 7H17C17 4.23858 14.7614 2 12 2V3.5ZM12 2C9.23858 2 7 4.23858 7 7H8.5C8.5 5.067 10.067 3.5 12 3.5V2ZM11.25 14V17H12.75V14H11.25Z"
        fill="currentColor"
      />
    </symbol>
    <!-- magnifying-glass -->
    <symbol id="magnifying-glass" viewBox="0 0 24 24">
      <path
        d="M20 20L16.1265 16.1265M16.1265 16.1265C17.4385 14.8145 18.25 13.002 18.25 11C18.25 6.99594 15.0041 3.75 11 3.75C6.99594 3.75 3.75 6.99594 3.75 11C3.75 15.0041 6.99594 18.25 11 18.25C13.002 18.25 14.8145 17.4385 16.1265 16.1265Z"
        stroke="currentColor"
        stroke-width="1.5"
        stroke-linecap="square"
        fill="transparent"
      />
    </symbol>
    <!-- filter-1 -->
    <symbol id="filter-1" viewBox="0 0 24 24">
      <path
        d="M20.25 3.75H3.75V8L9.75 14V21L14.25 20V14L20.25 8V3.75Z"
        stroke="currentColor"
        stroke-width="1.5"
        fill="transparent"
      />
    </symbol>
    <!-- fast-forward -->
    <symbol id="fast-forward" viewBox="0 0 24 24">
      <path
        d="M12.3742 11.3303L4.75 5.5V18.5L12.3742 12.6697M12.75 5.5L21.25 12L12.75 18.5V5.5Z"
        stroke="currentColor"
        stroke-width="1.5"
        stroke-linecap="square"
        fill="transparent"
      />
    </symbol>
    <!-- crystal-ball -->
    <symbol id="crystal-ball" viewBox="0 0 24 24">
      <path
        d="M6.98553 18.5C4.72683 16.9348 3.25 14.3409 3.25 11.4057C3.25 6.62531 7.16751 2.75 12 2.75C16.8325 2.75 20.75 6.62531 20.75 11.4057C20.75 14.3409 19.2732 16.9348 17.0145 18.5M6.75 18.75L5.75 21.25H18.25L17.25 18.75H6.75Z"
        stroke="currentColor"
        fill="transparent"
        stroke-width="1.5"
        stroke-linecap="square"
      />
      <path
        d="M15.5 9C15.5 9 15.2645 10.173 14.7188 10.7188C14.173 11.2645 13 11.5 13 11.5C13 11.5 14.173 11.7355 14.7188 12.2812C15.2645 12.827 15.5 14 15.5 14C15.5 14 15.7355 12.827 16.2812 12.2812C16.827 11.7355 18 11.5 18 11.5C18 11.5 16.827 11.2645 16.2812 10.7188C15.7355 10.173 15.5 9 15.5 9Z"
        fill="currentColor"
      />
      <path
        d="M13 6C13 6 12.8116 6.93838 12.375 7.375C11.9384 7.81162 11 8 11 8C11 8 11.9384 8.18838 12.375 8.625C12.8116 9.06162 13 10 13 10C13 10 13.1884 9.06162 13.625 8.625C14.0616 8.18838 15 8 15 8C15 8 14.0616 7.81162 13.625 7.375C13.1884 6.93838 13 6 13 6Z"
        fill="currentColor"
      />
    </symbol>
    <!-- circle-dots-center -->
    <symbol id="circle-dots-center" viewBox="0 0 24 24">
      <path
        d="M8 12V11.99M8.25 12C8.25 12.1381 8.13807 12.25 8 12.25C7.86193 12.25 7.75 12.1381 7.75 12C7.75 11.8619 7.86193 11.75 8 11.75C8.13807 11.75 8.25 11.8619 8.25 12Z"
        stroke="currentColor"
        stroke-width="1.5"
        stroke-linecap="round"
        fill="transparent"
      />
      <path
        d="M12 12V11.99M12.25 12C12.25 12.1381 12.1381 12.25 12 12.25C11.8619 12.25 11.75 12.1381 11.75 12C11.75 11.8619 11.8619 11.75 12 11.75C12.1381 11.75 12.25 11.8619 12.25 12Z"
        stroke="currentColor"
        stroke-width="1.5"
        stroke-linecap="round"
        fill="transparent"
      />
      <path
        d="M16 12V11.99M16.25 12C16.25 12.1381 16.1381 12.25 16 12.25C15.8619 12.25 15.75 12.1381 15.75 12C15.75 11.8619 15.8619 11.75 16 11.75C16.1381 11.75 16.25 11.8619 16.25 12Z"
        stroke="currentColor"
        stroke-width="1.5"
        stroke-linecap="round"
        fill="transparent"
      />
      <path
        d="M21.25 12C21.25 17.1086 17.1086 21.25 12 21.25C6.89137 21.25 2.75 17.1086 2.75 12C2.75 6.89137 6.89137 2.75 12 2.75C17.1086 2.75 21.25 6.89137 21.25 12Z"
        stroke="currentColor"
        stroke-width="1.5"
        fill="transparent"
      />
    </symbol>
    <!-- arrow-out-of-box -->
    <symbol id="arrow-out-of-box" viewBox="0 0 24 24">
      <path
        d="M12 3.75V15M12 3.75L16.5 8.25M12 3.75L7.5 8.25M20.25 12.75V18.25C20.25 19.3546 19.3546 20.25 18.25 20.25H5.75C4.64543 20.25 3.75 19.3546 3.75 18.25V12.75"
        stroke="currentColor"
        stroke-width="1.5"
        stroke-linecap="round"
        strokeLinejoin="round"
        fill="transparent"
      />
    </symbol>
    <!-- cross-large -->
    <symbol id="cross-large" viewBox="0 0 24 24">
      <path
        d="M4.75 4.75L19.25 19.25M19.25 4.75L4.75 19.25"
        stroke="currentColor"
        stroke-width="1.5"
        stroke-linecap="round"
      />
    </symbol>
    <!-- circle-x -->
    <symbol id="circle-x" viewBox="0 0 24 24">
      <path
        d="M15 9L9 15M15 15L9 9M21.25 12C21.25 17.1086 17.1086 21.25 12 21.25C6.89137 21.25 2.75 17.1086 2.75 12C2.75 6.89137 6.89137 2.75 12 2.75C17.1086 2.75 21.25 6.89137 21.25 12Z"
        stroke="currentColor"
        stroke-width="1.5"
        stroke-linecap="round"
        fill="transparent"
      />
    </symbol>
    <!-- square-x -->
    <symbol id="square-x" viewBox="0 0 24 24">
      <path
        d="M15.5303 9.53033C15.8232 9.23744 15.8232 8.76256 15.5303 8.46967C15.2374 8.17678 14.7626 8.17678 14.4697 8.46967L15.5303 9.53033ZM8.46967 14.4697C8.17678 14.7626 8.17678 15.2374 8.46967 15.5303C8.76256 15.8232 9.23744 15.8232 9.53033 15.5303L8.46967 14.4697ZM14.4697 15.5303C14.7626 15.8232 15.2374 15.8232 15.5303 15.5303C15.8232 15.2374 15.8232 14.7626 15.5303 14.4697L14.4697 15.5303ZM9.53033 8.46967C9.23744 8.17678 8.76256 8.17678 8.46967 8.46967C8.17678 8.76256 8.17678 9.23744 8.46967 9.53033L9.53033 8.46967ZM19.5 6.95V17.05H21V6.95H19.5ZM17.05 19.5H6.95V21H17.05V19.5ZM4.5 17.05V6.95H3V17.05H4.5ZM6.95 4.5H17.05V3H6.95V4.5ZM6.95 19.5C6.37757 19.5 5.99336 19.4994 5.69748 19.4752C5.41035 19.4518 5.27307 19.4099 5.18251 19.3638L4.50153 20.7003C4.83879 20.8721 5.19545 20.9392 5.57533 20.9703C5.94646 21.0006 6.40232 21 6.95 21V19.5ZM3 17.05C3 17.5977 2.99942 18.0535 3.02974 18.4247C3.06078 18.8046 3.12789 19.1612 3.29973 19.4985L4.63624 18.8175C4.5901 18.7269 4.54822 18.5896 4.52476 18.3025C4.50058 18.0066 4.5 17.6224 4.5 17.05H3ZM5.18251 19.3638C4.94731 19.2439 4.75608 19.0527 4.63624 18.8175L3.29973 19.4985C3.56338 20.0159 3.98408 20.4366 4.50153 20.7003L5.18251 19.3638ZM19.5 17.05C19.5 17.6224 19.4994 18.0066 19.4752 18.3025C19.4518 18.5896 19.4099 18.7269 19.3638 18.8175L20.7003 19.4985C20.8721 19.1612 20.9392 18.8046 20.9703 18.4247C21.0006 18.0535 21 17.5977 21 17.05H19.5ZM17.05 21C17.5977 21 18.0535 21.0006 18.4247 20.9703C18.8046 20.9392 19.1612 20.8721 19.4985 20.7003L18.8175 19.3638C18.7269 19.4099 18.5896 19.4518 18.3025 19.4752C18.0066 19.4994 17.6224 19.5 17.05 19.5V21ZM19.3638 18.8175C19.2439 19.0527 19.0527 19.2439 18.8175 19.3638L19.4985 20.7003C20.0159 20.4366 20.4366 20.0159 20.7003 19.4985L19.3638 18.8175ZM21 6.95C21 6.40232 21.0006 5.94646 20.9703 5.57533C20.9392 5.19545 20.8721 4.83879 20.7003 4.50153L19.3638 5.18251C19.4099 5.27307 19.4518 5.41035 19.4752 5.69748C19.4994 5.99336 19.5 6.37757 19.5 6.95H21ZM17.05 4.5C17.6224 4.5 18.0066 4.50058 18.3025 4.52476C18.5896 4.54822 18.7269 4.5901 18.8175 4.63624L19.4985 3.29973C19.1612 3.12789 18.8046 3.06078 18.4247 3.02974C18.0535 2.99942 17.5977 3 17.05 3V4.5ZM20.7003 4.50153C20.4366 3.98408 20.0159 3.56338 19.4985 3.29973L18.8175 4.63624C19.0527 4.75608 19.2439 4.94731 19.3638 5.18251L20.7003 4.50153ZM4.5 6.95C4.5 6.37757 4.50058 5.99336 4.52476 5.69748C4.54822 5.41035 4.5901 5.27307 4.63624 5.18251L3.29973 4.50153C3.12789 4.83879 3.06078 5.19545 3.02974 5.57533C2.99942 5.94646 3 6.40232 3 6.95H4.5ZM6.95 3C6.40232 3 5.94646 2.99942 5.57533 3.02974C5.19545 3.06078 4.83879 3.12789 4.50153 3.29973L5.18251 4.63624C5.27307 4.5901 5.41035 4.54822 5.69748 4.52476C5.99336 4.50058 6.37757 4.5 6.95 4.5V3ZM4.63624 5.18251C4.75608 4.94731 4.94731 4.75608 5.18251 4.63624L4.50153 3.29973C3.98408 3.56338 3.56338 3.98408 3.29973 4.50153L4.63624 5.18251ZM14.4697 8.46967L8.46967 14.4697L9.53033 15.5303L15.5303 9.53033L14.4697 8.46967ZM15.5303 14.4697L9.53033 8.46967L8.46967 9.53033L14.4697 15.5303L15.5303 14.4697Z"
        fill="currentColor"
      />
    </symbol>
    <!-- moneybag -->
    <symbol id="moneybag" viewBox="0 0 24 24">
      <path
        d="M9.5 8H14.5M9.5 8C9.5 8 3.99996 11 4 16C4.00003 20.0207 7.97931 21 12 21C16.0207 21 20 20.0207 20 16C20 11 14.5 8 14.5 8M9.5 8L8 4C8 4 9.5 3 12 3C14.5 3 16 4 16 4L14.5 8"
        stroke="currentColor"
        stroke-width="1.5"
        fill="transparent"
      />
    </symbol>
    <!-- rocket -->
    <symbol id="rocket" viewBox="0 0 24 24">
      <path
        d="M6.86111 13.25H3.25L6.25 7.75H11.2292M6.86111 13.25L10.75 17.1389M6.86111 13.25L11.2292 7.75M11.2292 7.75C14.0556 4.66667 17.1389 2.75 21.25 2.75C21.25 6.86111 19.3333 9.94444 16.25 12.7708M10.75 17.1389V20.75L16.25 17.75V12.7708M10.75 17.1389L16.25 12.7708M4.80556 21.25H2.75V19.1944C2.75 18.0592 3.6703 17.1389 4.80556 17.1389C5.94081 17.1389 6.86111 18.0592 6.86111 19.1944C6.86111 20.3297 5.94081 21.25 4.80556 21.25Z"
        stroke="currentColor"
        stroke-width="1.5"
        fill="transparent"
      />
    </symbol>
    <!-- brush-sparkle -->
    <symbol id="brush-sparkle" viewBox="0 0 24 24">
      <path
        d="M8.66667 3.66667L9.5 2L10.3333 3.66667L12 4.5L10.3333 5.33333L9.5 7L8.66667 5.33333L7 4.5L8.66667 3.66667Z"
        fill="currentColor"
      />
      <path
        d="M4.33333 7.33333L5.5 5L6.66667 7.33333L9 8.5L6.66667 9.66667L5.5 12L4.33333 9.66667L2 8.5L4.33333 7.33333Z"
        fill="currentColor"
      />
      <path
        fill-rule="evenodd"
        clip-rule="evenodd"
        d="M22.5265 5.46594L19.5342 2.47363L7.50391 13.0001H7.5C5.01472 13.0001 3 15.0148 3 17.5001V22.0001H7.5C9.98528 22.0001 12 19.9854 12 17.5001V17.4962L22.5265 5.46594ZM11.6097 15.6644C11.1581 14.6547 10.3454 13.8421 9.33572 13.3904L19.4658 4.5266L20.4735 5.53429L11.6097 15.6644ZM4.5 17.5001C4.5 15.8433 5.84315 14.5001 7.5 14.5001C7.57422 14.5001 7.64768 14.5028 7.72031 14.508C9.20109 14.6151 10.385 15.799 10.4921 17.2798C10.4973 17.3524 10.5 17.4259 10.5 17.5001C10.5 19.157 9.15685 20.5001 7.5 20.5001H4.5V17.5001Z"
        fill="currentColor"
      />
    </symbol>
    <!-- shopping-bag -->
    <symbol id="shopping-bag" viewBox="0 0 24 24">
      <path
        d="M15 8C15 9.65685 13.6569 11 12 11C10.3431 11 9 9.65685 9 8M4.75 3.75L3.75 20.25H20.25L19.25 3.75H4.75Z"
        stroke="currentColor"
        stroke-width="1.5"
        stroke-linecap="square"
        fill="transparent"
      />
    </symbol>
    <!-- layout-third -->
    <symbol id="layout-third" viewBox="0 0 24 24">
      <path
        d="M20.25 3.75H21.0234V2.97656H20.25V3.75ZM20.25 20.25V21.0234H21.0234V20.25H20.25ZM3.75 20.25H2.97656V21.0234H3.75V20.25ZM3.75 3.75V2.97656H2.97656V3.75H3.75ZM20.25 10.0205H21.0234V8.47363H20.25V10.0205ZM3.75 8.47363H2.97656V10.0205H3.75V8.47363ZM20.25 15.5264H21.0234V13.9795H20.25V15.5264ZM3.75 13.9795H2.97656V15.5264H3.75V13.9795ZM19.4766 3.75V20.25H21.0234V3.75H19.4766ZM20.25 19.4766H3.75V21.0234H20.25V19.4766ZM4.52344 20.25V3.75H2.97656V20.25H4.52344ZM3.75 4.52344H20.25V2.97656H3.75V4.52344ZM3.75 10.0205H20.25V8.47363H3.75V10.0205ZM3.75 15.5264H20.25V13.9795H3.75V15.5264Z"
        fill="currentColor"
      />
    </symbol>
    <!-- layout-grid -->
    <symbol id="layout-grid" viewBox="0 0 24 24">
      <path
        d="M3.75 3.75H10.25V10.25H3.75V3.75Z"
        stroke="currentColor"
        stroke-width="1.5"
        stroke-linecap="round"
        fill="transparent"
      />
      <path
        d="M13.75 3.75H20.25V10.25H13.75V3.75Z"
        stroke="currentColor"
        stroke-width="1.5"
        stroke-linecap="round"
        fill="transparent"
      />
      <path
        d="M3.75 13.75H10.25V20.25H3.75V13.75Z"
        stroke="currentColor"
        stroke-width="1.5"
        stroke-linecap="round"
        fill="transparent"
      />
      <path
        d="M13.75 13.75H20.25V20.25H13.75V13.75Z"
        stroke="currentColor"
        stroke-width="1.5"
        stroke-linecap="round"
        fill="transparent"
      />
    </symbol>
    <!-- filter-2 -->
    <symbol id="filter-2" viewBox="0 0 24 24">
      <path
        d="M2.75 4.75H21.25M8.75 19.25H15.25M5.75 12H18.25"
        stroke="currentColor"
        stroke-width="1.5"
        stroke-linecap="square"
      />
    </symbol>
    <!-- chevron-double-left -->
    <symbol id="chevron-double-left" viewBox="0 0 24 24">
      <path
        d="M10 16L6 12L10 8M17 16L13 12L17 8"
        stroke="currentColor"
        stroke-width="1.5"
        stroke-linecap="square"
        fill="transparent"
      />
    </symbol>
    <!-- chevron-double-right -->
    <symbol id="chevron-double-right" viewBox="0 0 24 24">
      <path
        d="M14 16L18 12L14 8M7 16L11 12L7 8"
        stroke="currentColor"
        stroke-width="1.5"
        stroke-linecap="square"
        fill="transparent"
      />
    </symbol>
    <!-- chevron-left-small -->
    <symbol id="chevron-left-small" viewBox="0 0 24 24">
      <path
        d="M14 16L10 12L14 8"
        stroke="currentColor"
        stroke-width="1.5"
        stroke-linecap="square"
        fill="transparent"
      />
    </symbol>
    <!-- chevron-right-small -->
    <symbol id="chevron-right-small" viewBox="0 0 24 24">
      <path
        d="M10 16L14 12L10 8"
        stroke="currentColor"
        stroke-width="1.5"
        stroke-linecap="square"
        fill="transparent"
      />
    </symbol>
    <!-- arrows-repeat -->
    <symbol id="arrows-repeat" viewBox="0 0 24 24">
      <path
        d="M17.25 21.25L20.25 18.25L17.25 15.25M6.75 2.75L3.75 5.75L6.75 8.75M5.25 5.75H20.25V10.75M3.75 13.75V18.25H18.75"
        stroke="currentColor"
        stroke-width="1.5"
        stroke-linecap="square"
        fill="transparent"
      />
    </symbol>
    <!-- loader -->
    <symbol id="loader" viewBox="0 0 24 24">
      <path
        d="M12.0003 2.75L12 6.25M12.0003 17.75V21.25M2.75 12.0007H6.25M17.75 12.0007H21.25M5.45948 5.45905L7.93414 7.93414M16.0661 16.0656L18.541 18.5405M5.45976 18.5412L7.93463 16.0664M16.0664 7.93463L18.5412 5.45976"
        stroke="currentColor"
        stroke-width="1.5"
        stroke-linecap="square"
        strokeLinejoin="round"
      />
    </symbol>
    <!-- group -->
    <symbol id="group" viewBox="0 0 24 24">
      <path
        d="M1.74999 20.25L1.00199 20.1953L0.943146 21H1.74999V20.25ZM14.25 20.25V21H15.0568L14.998 20.1953L14.25 20.25ZM22.5 19.25V20H23.3077L23.2479 19.1945L22.5 19.25ZM10.5 7C10.5 8.38071 9.3807 9.5 7.99999 9.5V11C10.2091 11 12 9.20914 12 7H10.5ZM7.99999 9.5C6.61928 9.5 5.49999 8.38071 5.49999 7H3.99999C3.99999 9.20914 5.79085 11 7.99999 11V9.5ZM5.49999 7C5.49999 5.61929 6.61928 4.5 7.99999 4.5V3C5.79085 3 3.99999 4.79086 3.99999 7H5.49999ZM7.99999 4.5C9.3807 4.5 10.5 5.61929 10.5 7H12C12 4.79086 10.2091 3 7.99999 3V4.5ZM19 7.5C19 8.60457 18.1046 9.5 17 9.5V11C18.933 11 20.5 9.433 20.5 7.5H19ZM17 9.5C15.8954 9.5 15 8.60457 15 7.5H13.5C13.5 9.433 15.067 11 17 11V9.5ZM15 7.5C15 6.39543 15.8954 5.5 17 5.5V4C15.067 4 13.5 5.567 13.5 7.5H15ZM17 5.5C18.1046 5.5 19 6.39543 19 7.5H20.5C20.5 5.567 18.933 4 17 4V5.5ZM2.49799 20.3047C2.64439 18.3025 3.22141 16.5832 4.153 15.3831C5.06737 14.2052 6.33959 13.5 7.99999 13.5V12C5.84778 12 4.14872 12.9424 2.96811 14.4633C1.80472 15.962 1.16304 17.9927 1.00199 20.1953L2.49799 20.3047ZM7.99999 13.5C9.66039 13.5 10.9326 14.2052 11.847 15.3831C12.7786 16.5832 13.3556 18.3025 13.502 20.3047L14.998 20.1953C14.837 17.9927 14.1953 15.962 13.0319 14.4633C11.8513 12.9424 10.1522 12 7.99999 12V13.5ZM1.74999 21H14.25V19.5H1.74999V21ZM17 13.5C18.4362 13.5 19.5308 14.0994 20.3177 15.0977C21.1216 16.1177 21.6244 17.5856 21.7521 19.3055L23.2479 19.1945C23.1051 17.2701 22.5354 15.4881 21.4957 14.1691C20.439 12.8285 18.9189 12 17 12V13.5ZM17 20H22.5V18.5H17V20ZM15.2958 13.8327C15.7909 13.6202 16.3567 13.5 17 13.5V12C16.1654 12 15.397 12.1569 14.7042 12.4543L15.2958 13.8327Z"
        fill="currentColor"
      />
    </symbol>
    <!-- wallet -->
    <symbol id="wallet" viewBox="0 0 24 24">
      <path
        d="M19.2493 6.5V4.75H3.94922C3.25886 4.75 2.69922 5.30964 2.69922 6C2.69922 6.69036 3.25886 7.25 3.94922 7.25H21.1992V19.25H4.69922C3.59465 19.25 2.69922 18.3546 2.69922 17.25V6.75M17.2493 13.25C17.2493 13.6642 16.9135 14 16.4993 14C16.0851 14 15.7493 13.6642 15.7493 13.25C15.7493 12.8358 16.0851 12.5 16.4993 12.5C16.9135 12.5 17.2493 12.8358 17.2493 13.25Z"
        stroke="currentColor"
        stroke-width="1.5"
        stroke-linecap="square"
        fill="transparent"
      />
    </symbol>
    <!-- chevron-top-small -->
    <symbol id="chevron-top-small" viewBox="0 0 24 24">
      <path
        d="M8 14L12 10L16 14"
        stroke="currentColor"
        stroke-width="1.5"
        stroke-linecap="square"
        fill="transparent"
      />
    </symbol>
    <!-- chevron-down-small -->
    <symbol id="chevron-down-small" viewBox="0 0 24 24">
      <path
        d="M8 10L12 14L16 10"
        stroke="currentColor"
        stroke-width="1.5"
        stroke-linecap="square"
        fill="transparent"
      />
    </symbol>
    <!-- chevron-grabber-vertical -->
    <symbol id="chevron-grabber-vertical" viewBox="0 0 24 24">
      <path
        d="M8 9L12 5L16 9M16 15L12 19L8 15"
        stroke="currentColor"
        stroke-width="1.5"
        stroke-linecap="square"
        fill="transparent"
      />
    </symbol>
    <!-- circle-check -->
    <symbol id="circle-check" viewBox="0 0 24 24">
      <path
        d="M15 9.5L10.5 15L8.5 13M21.25 12C21.25 17.1086 17.1086 21.25 12 21.25C6.89137 21.25 2.75 17.1086 2.75 12C2.75 6.89137 6.89137 2.75 12 2.75C17.1086 2.75 21.25 6.89137 21.25 12Z"
        stroke="currentColor"
        stroke-width="1.5"
        stroke-linecap="square"
        fill="transparent"
      />
    </symbol>
    <!-- crypto-punk -->
    <symbol id="crypto-punk" viewBox="0 0 24 24">
      <path
        d="M7.25 2.75H16.75M5.75 4.25V9.25M4.25 10.75V13.75M5.75 13.75V21.25M11.25 21.25V19.25H16.75M18.25 17.75V6.75M18.25 6.75V4.25M18.25 6.75H5.75M18.25 6.75H21.25M10.75 13.75H10.76M14.25 15.25H11.75M10.7188 9.94444H10.7291M14.8438 9.94444H14.8541"
        stroke="currentColor"
        stroke-width="1.5"
        stroke-linecap="square"
        fill="transparent"
      />
    </symbol>
    <!--  -->
    <symbol id="person-circle" viewBox="0 0 24 24">
      <path
        d="M6.16318 18.5C7.49405 16.8187 9.52996 15.75 12 15.75C14.47 15.75 16.506 16.8187 17.8368 18.5M15.25 10C15.25 11.7949 13.7949 13.25 12 13.25C10.2051 13.25 8.75 11.7949 8.75 10C8.75 8.20507 10.2051 6.75 12 6.75C13.7949 6.75 15.25 8.20507 15.25 10ZM21.25 12C21.25 6.89137 17.1086 2.75 12 2.75C6.89137 2.75 2.75 6.89137 2.75 12C2.75 14.7509 3.95086 17.2214 5.85697 18.9157C7.49061 20.3679 9.6423 21.25 12 21.25C14.3577 21.25 16.5094 20.3679 18.143 18.9157C20.0491 17.2214 21.25 14.7509 21.25 12Z"
        stroke="currentColor"
        stroke-width="1.5"
        strokeLinejoin="round"
        fill="transparent"
      />
    </symbol>
    <!-- shield-check -->
    <symbol id="shield-check" viewBox="0 0 24 24">
      <path
        d="M9.5 12.25L11 13.75L14.5 10.25M3.75 3.75H20.25V17.75L12 22.25L3.75 17.75V3.75Z"
        stroke="currentColor"
        stroke-width="1.5"
        stroke-linecap="square"
      />
    </symbol>
    <!-- plus-large -->
    <symbol id="plus-large" viewBox="0 0 24 24">
      <path
        d="M12 3.75V12M12 12V20.25M12 12H3.75M12 12H20.25"
        stroke="currentColor"
        stroke-width="1.5"
        stroke-linecap="square"
      />
    </symbol>
    <!-- plus-small -->
    <symbol id="plus-small" viewBox="0 0 24 24">
      <path
        d="M12 6.75V12M12 12V17.25M12 12H6.75M12 12H17.25"
        stroke="currentColor"
        stroke-width="1.5"
        stroke-linecap="square"
      />
    </symbol>
    <!-- circle-plus -->
    <symbol id="circle-plus" viewBox="0 0 24 24">
      <path
        d="M16.2426 12H7.75736M12 16.2426V7.75736M21.25 12C21.25 17.1086 17.1086 21.25 12 21.25C6.89137 21.25 2.75 17.1086 2.75 12C2.75 6.89137 6.89137 2.75 12 2.75C17.1086 2.75 21.25 6.89137 21.25 12Z"
        stroke="currentColor"
        stroke-width="1.5"
        stroke-linecap="square"
        fill="transparent"
      />
    </symbol>
    <!-- square-plus -->
    <symbol id="square-plus" viewBox="0 0 24 24">
      <path
        d="M20.25 3.75H21V3H20.25V3.75ZM20.25 20.25V21H21V20.25H20.25ZM3.75 20.25H3V21H3.75V20.25ZM3.75 3.75V3H3V3.75H3.75ZM15.25 12.75H16V11.25H15.25V12.75ZM8.75736 11.25H8.00736V12.75H8.75736V11.25ZM11.25 15.2426V15.9926H12.75V15.2426H11.25ZM12.75 8.75736V8.00736H11.25V8.75736H12.75ZM19.5 3.75V20.25H21V3.75H19.5ZM20.25 19.5H3.75V21H20.25V19.5ZM4.5 20.25V3.75H3V20.25H4.5ZM3.75 4.5H20.25V3H3.75V4.5ZM15.25 11.25H8.75736V12.75H15.25V11.25ZM12.75 15.2426V8.75736H11.25V15.2426H12.75Z"
        fill="currentColor"
      />
    </symbol>
    <!-- eye-open -->
    <symbol id="eye-open" viewBox="0 0 24 24">
      <path
        d="M2 11.9999L1.32902 11.6649L1.16168 11.9999L1.32902 12.335L2 11.9999ZM22 12L22.671 12.3351L22.8383 12L22.671 11.665L22 12ZM2.67098 12.335C4.9893 7.69276 8.55546 5.5 12 5.50003C15.4445 5.50006 19.0107 7.69287 21.329 12.3351L22.671 11.665C20.1618 6.64061 16.1417 4.00006 12 4.00003C7.85827 4 3.83815 6.64049 1.32902 11.6649L2.67098 12.335ZM1.32902 12.335C3.83815 17.3594 7.85826 19.9999 12 20C16.1417 20 20.1618 17.3595 22.671 12.3351L21.329 11.665C19.0107 16.3072 15.4445 18.5 12 18.5C8.55547 18.4999 4.9893 16.3071 2.67098 11.6649L1.32902 12.335ZM14.5 12C14.5 13.3807 13.3807 14.5 12 14.5V16C14.2091 16 16 14.2092 16 12H14.5ZM12 14.5C10.6193 14.5 9.5 13.3807 9.5 12H8C8 14.2092 9.79086 16 12 16V14.5ZM9.5 12C9.5 10.6193 10.6193 9.50001 12 9.50001V8.00001C9.79086 8.00001 8 9.79087 8 12H9.5ZM12 9.50001C13.3807 9.50001 14.5 10.6193 14.5 12H16C16 9.79087 14.2091 8.00001 12 8.00001V9.50001Z"
        fill="currentColor"
      />
    </symbol>
    <!-- eye-slash -->
    <symbol id="eye-slash" viewBox="0 0 24 24">
      <path
        d="M9.1654 4.4207L8.44723 4.63687L8.87955 6.07321L9.59772 5.85705L9.1654 4.4207ZM22 12L22.671 12.3351L22.8383 12L22.671 11.6649L22 12ZM19.1413 14.9666L18.646 15.5298L19.7724 16.5203L20.2677 15.9571L19.1413 14.9666ZM3.28033 2.21966L2.75 1.68933L1.68934 2.74999L2.21967 3.28032L3.28033 2.21966ZM2 11.9999L1.32902 11.6648L1.16168 11.9999L1.32902 12.335L2 11.9999ZM20.7197 21.7803L21.25 22.3107L22.3107 21.25L21.7803 20.7197L20.7197 21.7803ZM6.65566 7.36294L7.25664 6.91425L6.35925 5.71229L5.75827 6.16099L6.65566 7.36294ZM10.0289 10.4619L10.4909 9.87105L9.30914 8.9472L8.84721 9.53807L10.0289 10.4619ZM14.4619 15.1528L15.0528 14.6909L14.1289 13.5091L13.5381 13.9711L14.4619 15.1528ZM17.5232 18.3357L18.1554 17.9323L17.3486 16.6678L16.7164 17.0712L17.5232 18.3357ZM9.59772 5.85705C13.745 4.60877 18.4769 6.62399 21.329 12.3351L22.671 11.6649C19.5775 5.47054 14.1791 2.91164 9.1654 4.4207L9.59772 5.85705ZM20.2677 15.9571C21.1654 14.9364 21.9755 13.7277 22.671 12.3351L21.329 11.6649C20.6865 12.9515 19.9468 14.0507 19.1413 14.9666L20.2677 15.9571ZM12 14.5C10.6193 14.5 9.5 13.3807 9.5 12H8C8 14.2091 9.79086 16 12 16V14.5ZM2.21967 3.28032L20.7197 21.7803L21.7803 20.7197L3.28033 2.21966L2.21967 3.28032ZM2.67098 12.335C3.76814 10.138 5.14803 8.48855 6.65566 7.36294L5.75827 6.16099C4.03839 7.44506 2.5162 9.28757 1.32902 11.6648L2.67098 12.335ZM9.5 12C9.5 11.419 9.69726 10.8862 10.0289 10.4619L8.84721 9.53807C8.31663 10.2168 8 11.0725 8 12H9.5ZM13.5381 13.9711C13.1138 14.3027 12.581 14.5 12 14.5V16C12.9275 16 13.7832 15.6834 14.4619 15.1528L13.5381 13.9711ZM1.32902 12.335C3.16255 16.0065 5.7985 18.4051 8.71589 19.4324C11.6412 20.4625 14.7789 20.0866 17.5232 18.3357L16.7164 17.0712C14.3458 18.5836 11.6879 18.8887 9.21411 18.0176C6.73247 17.1437 4.36597 15.0589 2.67098 11.6648L1.32902 12.335Z"
        fill="currentColor"
      />
    </symbol>
    <!-- calendar -->
    <symbol id="calendar" viewBox="0 0 24 24">
      <path
        d="M20.25 7.75V3.75H3.75V7.75M20.25 7.75V20.25H3.75V7.75M20.25 7.75H3.75M7.75 11.75H8.25V12.25H7.75V11.75ZM7.75 15.75H8.25V16.25H7.75V15.75ZM11.75 11.75H12.25V12.25H11.75V11.75ZM11.75 15.75H12.25V16.25H11.75V15.75ZM15.75 11.75H16.25V12.25H15.75V11.75Z"
        stroke="currentColor"
        stroke-width="1.5"
        stroke-linecap="square"
        fill="transparent"
      />
    </symbol>
    <!-- shield-check-filled -->
    <symbol id="shield-check-filled" viewBox="0 0 24 24">
      <path
        fill-rule="evenodd"
        clip-rule="evenodd"
        d="M3 5L12 2L21 5V11.9529C21 14.6903 19.8165 16.7106 18.1412 18.3002C16.4942 19.863 14.3404 21.038 12.3561 22.1086L12 22.3007L11.6439 22.1086C9.65956 21.038 7.5058 19.863 5.85876 18.3002C4.18351 16.7106 3 14.6903 3 11.9529V5ZM15.8107 9.54102L14.75 8.48036L11 12.2304L9.25 10.4804L8.18934 11.541L11 14.3517L15.8107 9.54102Z"
        fill="currentColor"
      />
    </symbol>
    <!-- dot-grid -->
    <symbol id="dot-grid" viewBox="0 0 24 24">
      <path d="M7.5 4H11V7.5H7.5V4Z" fill="currentColor" />
      <path d="M13 4H16.5V7.5H13V4Z" fill="currentColor" />
      <path d="M7.5 16.5H11V20H7.5V16.5Z" fill="currentColor" />
      <path d="M13 16.5H16.5V20H13V16.5Z" fill="currentColor" />
      <path d="M7.5 10.15H11V13.75H7.5V10.15Z" fill="currentColor" />
      <path d="M13 10.15H16.5V13.75H13V10.15Z" fill="currentColor" />
    </symbol>
    <!-- circles-three -->
    <symbol id="circles-three" viewBox="0 0 24 24">
      <path
        d="M12.75 7.75C12.75 10.5114 10.5114 12.75 7.75 12.75C4.98858 12.75 2.75 10.5114 2.75 7.75C2.75 4.98858 4.98858 2.75 7.75 2.75C10.5114 2.75 12.75 4.98858 12.75 7.75Z"
        stroke="currentColor"
        stroke-width="1.5"
        fill="transparent"
      />
      <path
        d="M17.5 17.75C17.5 19.683 15.933 21.25 14 21.25C12.067 21.25 10.5 19.683 10.5 17.75C10.5 15.817 12.067 14.25 14 14.25C15.933 14.25 17.5 15.817 17.5 17.75Z"
        stroke="currentColor"
        stroke-width="1.5"
        fill="transparent"
      />
      <path
        d="M21.25 9.25C21.25 10.7688 20.0188 12 18.5 12C16.9812 12 15.75 10.7688 15.75 9.25C15.75 7.73122 16.9812 6.5 18.5 6.5C20.0188 6.5 21.25 7.73122 21.25 9.25Z"
        stroke="currentColor"
        stroke-width="1.5"
        fill="transparent"
      />
    </symbol>
    <!-- circle -->
    <symbol id="circle" viewBox="0 0 24 24">
      <path
        d="M21.25 12C21.25 17.1086 17.1086 21.25 12 21.25C6.89137 21.25 2.75 17.1086 2.75 12C2.75 6.89137 6.89137 2.75 12 2.75C17.1086 2.75 21.25 6.89137 21.25 12Z"
        stroke="currentColor"
        stroke-width="1.5"
        stroke-linecap="square"
        fill="transparent"
      />
    </symbol>
    <!-- microphone -->
    <symbol id="microphone" viewBox="0 0 24 24">
      <path
        d="M12.0009 19C15.0764 19 17.7195 17.1489 18.8769 14.5M12.0009 19C8.92546 19 6.28233 17.1489 5.125 14.5M12.0009 19V21.25M12.0009 15.75C9.65372 15.75 7.75093 13.8472 7.75093 11.5V7C7.75093 4.65279 9.65372 2.75 12.0009 2.75C14.3481 2.75 16.2509 4.65279 16.2509 7V11.5C16.2509 13.8472 14.3481 15.75 12.0009 15.75Z"
        stroke="currentColor"
        stroke-width="1.5"
        stroke-linecap="square"
        fill="transparent"
      />
    </symbol>
    <!-- checkmark -->
    <symbol id="checkmark" viewBox="0 0 24 24" fill="none">
      <path d="M2.75 15.0938L9 20.25L21.25 3.75" stroke="currentColor" stroke-width="1.5"
        stroke-linecap="square" />
    </symbol>
    <!-- fingerprint -->
    <symbol id="fingerprint" viewBox="0 0 24 24" fill="none">
      <path fill-rule="evenodd" clip-rule="evenodd"
        d="M12.0084 3.5C10.8296 3.5 9.71635 3.7713 8.72569 4.25417L8.06848 2.90581C9.25938 2.32534 10.597 2 12.0084 2C16.9805 2 21.0112 6.03071 21.0112 11.0028C21.0112 13.1838 20.8105 15.3185 20.4262 17.3894L20.2894 18.1268L18.8146 17.8532L18.9514 17.1158C19.319 15.1347 19.5112 13.0916 19.5112 11.0028C19.5112 6.85913 16.1521 3.5 12.0084 3.5ZM6.55983 5.84473C5.28583 7.18997 4.50555 9.00447 4.50555 11.0028C4.50555 12.4932 4.32711 13.943 3.99006 15.3314L3.81314 16.0603L2.35547 15.7064L2.53239 14.9776C2.84153 13.7041 3.00555 12.3731 3.00555 11.0028C3.00555 8.6057 3.94342 6.42601 5.47073 4.81329L6.55983 5.84473ZM12.0084 7.62642C10.1436 7.62642 8.63197 9.13809 8.63197 11.0028C8.63197 12.9227 8.39042 14.7872 7.93567 16.5672L6.48235 16.1959C6.90636 14.5363 7.13197 12.7964 7.13197 11.0028C7.13197 8.30966 9.31522 6.12642 12.0084 6.12642C14.7016 6.12642 16.8848 8.30966 16.8848 11.0028C16.8848 12.0735 16.8299 13.1315 16.7227 14.1743L15.2306 14.021C15.3325 13.029 15.3848 12.0222 15.3848 11.0028C15.3848 9.13809 13.8731 7.62642 12.0084 7.62642ZM12.7588 10.2528V11.0028C12.7588 13.932 12.284 16.7517 11.4066 19.3885C11.1809 20.0669 10.9285 20.7331 10.6507 21.3859L10.3571 22.076L8.97684 21.4887L9.27049 20.7986C9.53245 20.1829 9.77046 19.5546 9.98335 18.9149C10.8106 16.4289 11.2588 13.769 11.2588 11.0028V10.2528H12.7588ZM14.427 18.4449C14.6352 17.6534 14.811 16.8488 14.9529 16.0324L16.4307 16.2893C16.2815 17.1478 16.0966 17.9941 15.8776 18.8265C15.6612 19.6492 15.4114 20.4583 15.1299 21.2524L14.8793 21.9593L13.4655 21.4581L13.7161 20.7512C13.9838 19.9962 14.2212 19.227 14.427 18.4449ZM5.5414 19.0176C5.72453 18.5766 5.893 18.128 6.04619 17.6724L7.46797 18.1504C7.3037 18.639 7.12306 19.12 6.9267 19.5929L6.63907 20.2855L5.25377 19.7103L5.5414 19.0176Z"
        fill="currentColor" />
    </symbol>

    <!-- x -->
    <symbol id="x" viewBox="0 0 16 16" fill="none">
      <g clip-path="url(#clip0_3693_5308)">
        <path
          d="M9.39701 6.87774L14.8576 0.666748H13.5638L8.82021 6.05854L5.0343 0.666748H0.666687L6.39301 8.82081L0.666687 15.3334H1.9605L6.96675 9.63817L10.9657 15.3334H15.3334L9.39701 6.87774ZM7.62437 8.89239L7.04329 8.07992L2.42708 1.62116H4.41464L8.14116 6.83552L8.71979 7.64799L13.5632 14.4255H11.5756L7.62437 8.89239Z"
          fill="currentColor" />
      </g>
      <defs>
        <clipPath id="clip0_3693_5308">
          <rect width="16" height="16" fill="currentColor" />
        </clipPath>
      </defs>
    </symbol>
    <!-- discord -->
    <symbol id="discord" viewBox="0 0 16 16" fill="none">
      <g clip-path="url(#clip0_3693_5310)">
        <path
          d="M13.5535 2.95184C12.5178 2.46726 11.4103 2.11508 10.2525 1.91455C10.1103 2.17162 9.94423 2.51739 9.82969 2.79245C8.59894 2.60736 7.3795 2.60736 6.17138 2.79245C6.05687 2.51739 5.88698 2.17162 5.74351 1.91455C4.58448 2.11508 3.47578 2.46855 2.44007 2.9544C0.351034 6.11121 -0.215268 9.1896 0.0678834 12.2243C1.45344 13.259 2.79621 13.8875 4.11632 14.2988C4.44226 13.8502 4.73296 13.3734 4.98339 12.8708C4.50644 12.6896 4.04962 12.4659 3.61799 12.2063C3.7325 12.1215 3.84451 12.0328 3.95273 11.9415C6.5854 13.1729 9.44587 13.1729 12.0471 11.9415C12.1566 12.0328 12.2686 12.1215 12.3818 12.2063C11.9489 12.4672 11.4909 12.6909 11.0139 12.8721C11.2643 13.3734 11.5538 13.8515 11.881 14.3001C13.2024 13.8888 14.5464 13.2603 15.9319 12.2243C16.2642 8.70631 15.3644 5.65619 13.5535 2.95184ZM5.34206 10.358C4.55175 10.358 3.90364 9.62019 3.90364 8.72173C3.90364 7.82328 4.53791 7.08421 5.34206 7.08421C6.14622 7.08421 6.79431 7.82198 6.78047 8.72173C6.78172 9.62019 6.14622 10.358 5.34206 10.358ZM10.6578 10.358C9.86746 10.358 9.21935 9.62019 9.21935 8.72173C9.21935 7.82328 9.8536 7.08421 10.6578 7.08421C11.4619 7.08421 12.11 7.82198 12.0962 8.72173C12.0962 9.62019 11.4619 10.358 10.6578 10.358Z"
          fill="#5865F2" />
      </g>
      <defs>
        <clipPath id="clip0_3693_5310">
          <rect width="16" height="16" fill="currentColor" transform="translate(0 0.133301)" />
        </clipPath>
      </defs>
    </symbol>
    <!-- lens -->
    <symbol id="lens" viewBox="0 0 16 11" fill="none">
      <path fill-rule="evenodd" clip-rule="evenodd"
        d="M11.0146 2.66783C11.6705 2.12067 12.4021 1.91248 13.1039 1.96512C13.8524 2.02125 14.545 2.37212 15.0624 2.88175C15.5797 3.39141 15.9351 4.07312 15.992 4.80882C16.0494 5.55124 15.8008 6.32882 15.1454 7.01121C15.0855 7.0741 15.0243 7.13609 14.9617 7.19734C11.9891 10.1256 8.04042 10.1333 8.00002 10.1333H7.99982C7.97963 10.1333 4.01846 10.1332 1.03814 7.19704L1.0375 7.19629C0.975974 7.13534 0.915383 7.07395 0.8557 7.01225L0.855223 7.01166C0.199538 6.32985 -0.0492793 5.55246 0.00794417 4.81005C0.064646 4.07446 0.419804 3.39268 0.936976 2.88284C1.4541 2.37303 2.14671 2.02188 2.89537 1.96551C3.59705 1.91266 4.32888 2.12059 4.98504 2.66749C5.0556 1.82397 5.42319 1.16746 5.95678 0.716127C6.52587 0.23475 7.2675 0 7.99984 0C8.73219 0 9.4738 0.23475 10.0429 0.716127C10.5765 1.16752 10.9441 1.82415 11.0146 2.66783ZM8.13592 9.83647L8.13579 9.83274H8.13603L8.13592 9.83647ZM7.86377 9.83647L7.86366 9.83274H7.8639L7.86377 9.83647ZM10.2332 5.77039C10.1518 5.77039 10.1236 5.8861 10.1755 5.94739C10.2673 6.05595 10.3226 6.19563 10.3226 6.34802C10.3226 6.6938 10.0381 6.97411 9.68715 6.97411C9.33614 6.97411 9.0516 6.6938 9.0516 6.34802C9.0516 6.32952 9.0271 6.32033 9.01603 6.33532C8.9158 6.47094 8.84813 6.62319 8.82032 6.78306C8.80468 6.87307 8.7304 6.94773 8.63707 6.94773H8.58553C8.46372 6.94773 8.36324 6.85038 8.38121 6.7325C8.50445 5.92467 9.31259 5.33877 10.2332 5.33877C11.1537 5.33877 11.9618 5.92467 12.085 6.7325C12.1029 6.85038 12.0025 6.94773 11.8807 6.94773C11.7588 6.94773 11.6624 6.84988 11.6359 6.73354C11.5155 6.20403 10.9569 5.77039 10.2332 5.77039ZM4.58977 6.34802C4.58977 6.32362 4.55767 6.31052 4.54256 6.32994C4.43541 6.46768 4.36241 6.62367 4.3315 6.78807C4.31326 6.88514 4.23308 6.96591 4.13216 6.96591H4.09434C3.97253 6.96591 3.87205 6.8686 3.89 6.75073C4.01318 5.94246 4.82142 5.35699 5.74191 5.35699C6.66239 5.35699 7.47063 5.94246 7.5938 6.75073C7.61178 6.8686 7.51128 6.96591 7.38947 6.96591C7.26768 6.96591 7.17121 6.86815 7.14476 6.75178C7.02434 6.22194 6.46583 5.78861 5.74191 5.78861C5.6761 5.78861 5.65202 5.87963 5.69607 5.92745C5.79842 6.03859 5.86078 6.18614 5.86078 6.34802C5.86078 6.6938 5.57626 6.97411 5.22528 6.97411C4.87429 6.97411 4.58977 6.6938 4.58977 6.34802ZM8.70681 7.85794C8.7929 7.77359 8.92595 7.73261 9.03284 7.78969C9.13973 7.84691 9.18028 7.97954 9.10325 8.07193C8.85236 8.3725 8.44615 8.5631 7.99814 8.5631C7.55036 8.5631 7.14326 8.37459 6.89204 8.07163C6.81528 7.97909 6.85634 7.84647 6.96344 7.78969C7.07054 7.73291 7.20337 7.77449 7.28934 7.85883C7.45493 8.02156 7.70622 8.13154 7.99814 8.13154C8.28929 8.13154 8.54085 8.02037 8.70681 7.85794Z"
        fill="currentColor" />
    </symbol>
    <!-- farcaster -->
    <symbol id="farcaster" viewBox="0 0 16 16" fill="none">
      <rect y="0.133301" width="16" height="16" rx="3.55556" fill="#855DCD" />
      <path
        d="M4.12429 2.62207H11.8754V13.6443H10.7376V8.5954H10.7265C10.6007 7.20001 9.42799 6.10651 7.99985 6.10651C6.57172 6.10651 5.39898 7.20001 5.27323 8.5954H5.26207V13.6443H4.12429V2.62207Z"
        fill="white" />
      <path
        d="M2.06207 4.18651L2.5243 5.75096H2.91541V12.0798C2.71904 12.0798 2.55985 12.239 2.55985 12.4354V12.8621H2.48874C2.29237 12.8621 2.13318 13.0213 2.13318 13.2176V13.6443H6.11541V13.2176C6.11541 13.0213 5.95622 12.8621 5.75985 12.8621H5.68874V12.4354C5.68874 12.239 5.52955 12.0798 5.33318 12.0798H4.90652V4.18651H2.06207Z"
        fill="white" />
      <path
        d="M10.8087 12.0798C10.6124 12.0798 10.4532 12.239 10.4532 12.4354V12.8621H10.3821C10.1857 12.8621 10.0265 13.0213 10.0265 13.2176V13.6443H14.0087V13.2176C14.0087 13.0213 13.8496 12.8621 13.6532 12.8621H13.5821V12.4354C13.5821 12.239 13.4229 12.0798 13.2265 12.0798V5.75096H13.6176L14.0799 4.18651H11.2354V12.0798H10.8087Z"
        fill="white" />
    </symbol>
    <!-- calendly -->
    <symbol id="calendly" viewBox="0 0 16 16" fill="none">
      <path
        d="M13.5 5.29997V2.6333H2.5V5.29997M13.5 5.29997V13.6333H2.5V5.29997M13.5 5.29997H2.5M5.16667 7.96663H5.5V8.29997H5.16667V7.96663ZM5.16667 10.6333H5.5V10.9666H5.16667V10.6333ZM7.83333 7.96663H8.16667V8.29997H7.83333V7.96663ZM7.83333 10.6333H8.16667V10.9666H7.83333V10.6333ZM10.5 7.96663H10.8333V8.29997H10.5V7.96663Z"
        stroke="currentColor" stroke-linecap="square" />
    </symbol>
    <!-- medium -->
    <symbol id="medium" viewBox="0 0 16 16" fill="none">
      <path
        d="M4.51256 3.5708C7.00478 3.5708 9.02496 5.60509 9.02496 8.11433C9.02496 10.6236 7.00463 12.6577 4.51256 12.6577C2.02049 12.6577 0 10.6236 0 8.11433C0 5.60509 2.02033 3.5708 4.51256 3.5708ZM11.7188 3.83695C12.9649 3.83695 13.9751 5.7518 13.9751 8.11433H13.9752C13.9752 10.4762 12.9651 12.3917 11.7189 12.3917C10.4728 12.3917 9.46266 10.4762 9.46266 8.11433C9.46266 5.75242 10.4727 3.83695 11.7188 3.83695ZM15.2065 4.28247C15.6446 4.28247 16 5.99802 16 8.11433C16 10.23 15.6448 11.9462 15.2065 11.9462C14.7681 11.9462 14.4131 10.2305 14.4131 8.11433C14.4131 5.99817 14.7683 4.28247 15.2065 4.28247Z"
        fill="currentColor" />
    </symbol>
    <!-- github -->
    <symbol id="github" viewBox="0 0 24 24" fill="none">
      <path fill-rule="evenodd" clip-rule="evenodd"
        d="M12.0099 0C5.36875 0 0 5.40833 0 12.0992C0 17.4475 3.43994 21.9748 8.21205 23.5771C8.80869 23.6976 9.02724 23.3168 9.02724 22.9965C9.02724 22.716 9.00757 21.7545 9.00757 20.7527C5.6667 21.474 4.97099 19.3104 4.97099 19.3104C4.43409 17.9082 3.63858 17.5478 3.63858 17.5478C2.54511 16.8066 3.71823 16.8066 3.71823 16.8066C4.93117 16.8868 5.56763 18.0486 5.56763 18.0486C6.64118 19.8913 8.37111 19.3707 9.06706 19.0501C9.16638 18.2688 9.48473 17.728 9.82275 17.4276C7.15817 17.1471 4.35469 16.1055 4.35469 11.458C4.35469 10.1359 4.8316 9.05428 5.58729 8.21304C5.46807 7.91263 5.0504 6.67043 5.70677 5.00787C5.70677 5.00787 6.72083 4.6873 9.00732 6.24981C9.98625 5.98497 10.9958 5.85024 12.0099 5.84911C13.024 5.84911 14.0577 5.98948 15.0123 6.24981C17.299 4.6873 18.3131 5.00787 18.3131 5.00787C18.9695 6.67043 18.5515 7.91263 18.4323 8.21304C19.2079 9.05428 19.6652 10.1359 19.6652 11.458C19.6652 16.1055 16.8617 17.1269 14.1772 17.4276C14.6148 17.8081 14.9924 18.5292 14.9924 19.6711C14.9924 21.2936 14.9727 22.5957 14.9727 22.9962C14.9727 23.3168 15.1915 23.6976 15.7879 23.5774C20.56 21.9745 23.9999 17.4475 23.9999 12.0992C24.0196 5.40833 18.6312 0 12.0099 0Z"
        fill="currentColor" />
    </symbol>
    <!-- people -->
    <svg id="people" viewBox="0 0 24 24" fill="none">
      <path
        d="M4.49996 20.25L3.75325 20.1798L3.67615 21H4.49996V20.25ZM19.5 20.25V21H20.3238L20.2467 20.1798L19.5 20.25ZM15 6.5C15 8.15685 13.6569 9.5 12 9.5V11C14.4853 11 16.5 8.98528 16.5 6.5H15ZM12 9.5C10.3431 9.5 8.99996 8.15685 8.99996 6.5H7.49996C7.49996 8.98528 9.51468 11 12 11V9.5ZM8.99996 6.5C8.99996 4.84315 10.3431 3.5 12 3.5V2C9.51468 2 7.49996 4.01472 7.49996 6.5H8.99996ZM12 3.5C13.6569 3.5 15 4.84315 15 6.5H16.5C16.5 4.01472 14.4853 2 12 2V3.5ZM5.24667 20.3202C5.58312 16.7412 8.23544 14 12 14V12.5C7.38407 12.5 4.15468 15.9097 3.75325 20.1798L5.24667 20.3202ZM12 14C15.7645 14 18.4168 16.7412 18.7533 20.3202L20.2467 20.1798C19.8453 15.9097 16.6159 12.5 12 12.5V14ZM4.49996 21H19.5V19.5H4.49996V21Z"
        fill="currentColor" />
    </svg>
    <!-- tag -->
    <symbol id="tag" viewBox="0 0 24 24" fill="none">
      <path
        d="M8.25 7.5C8.25 7.91421 7.91421 8.25 7.5 8.25C7.08579 8.25 6.75 7.91421 6.75 7.5C6.75 7.08579 7.08579 6.75 7.5 6.75C7.91421 6.75 8.25 7.08579 8.25 7.5Z"
        stroke="currentColor" stroke-width="1.5" stroke-linecap="square" />
      <path d="M2.75 12V2.75H12L21.25 12L12 21.25L2.75 12Z" stroke="currentColor" stroke-width="1.5"
        stroke-linecap="square" />
    </symbol>
    <!-- tag-filled -->
    <symbol id="tag-filled" viewBox="0 0 24 24" fill="none">
      <path fill-rule="evenodd" clip-rule="evenodd"
        d="M2 12.3107V2H12.3107L22.3107 12L12 22.3107L2 12.3107ZM7.5 9C8.32843 9 9 8.32843 9 7.5C9 6.67157 8.32843 6 7.5 6C6.67157 6 6 6.67157 6 7.5C6 8.32843 6.67157 9 7.5 9Z"
        fill="currentColor" />
    </symbol>
    <!-- trust-circle -->
    <symbol id="trust-circle" viewBox="0 0 24 24" fill="none">
      <path fill-rule="evenodd" clip-rule="evenodd"
        d="M10.325 2.13978C10.8701 2.0478 11.4298 2 12 2C12.5702 2 13.1299 2.0478 13.675 2.13978L14.4145 2.26457L14.165 3.74366L13.4254 3.61888C12.9624 3.54075 12.4863 3.5 12 3.5C11.5137 3.5 11.0376 3.54075 10.5746 3.61888L9.83504 3.74366L9.58547 2.26457L10.325 2.13978ZM7.69275 4.6322L7.08145 5.06672C6.30236 5.6205 5.6205 6.30236 5.06672 7.08145L4.6322 7.69275L3.40959 6.82371L3.84411 6.21241C4.49513 5.29651 5.29651 4.49513 6.21241 3.84411L6.82371 3.40959L7.69275 4.6322ZM17.1763 3.40959L17.7876 3.84411C18.7035 4.49513 19.5049 5.29651 20.1559 6.21241L20.5904 6.82371L19.3678 7.69275L18.9333 7.08145C18.3795 6.30236 17.6976 5.6205 16.9186 5.06672L16.3072 4.6322L17.1763 3.40959ZM3.74366 9.83504L3.61888 10.5746C3.54075 11.0376 3.5 11.5137 3.5 12C3.5 12.4863 3.54075 12.9624 3.61888 13.4254L3.74366 14.165L2.26457 14.4145L2.13978 13.675C2.0478 13.1299 2 12.5702 2 12C2 11.4298 2.0478 10.8701 2.13978 10.325L2.26457 9.58547L3.74366 9.83504ZM21.7354 9.58547L21.8602 10.325C21.9522 10.8701 22 11.4298 22 12C22 12.5702 21.9522 13.1299 21.8602 13.675L21.7354 14.4145L20.2563 14.165L20.3811 13.4254C20.4592 12.9624 20.5 12.4863 20.5 12C20.5 11.5137 20.4592 11.0376 20.3811 10.5746L20.2563 9.83504L21.7354 9.58547ZM4.6322 16.3072L5.06672 16.9186C5.6205 17.6976 6.30236 18.3795 7.08145 18.9333L7.69275 19.3678L6.82371 20.5904L6.21241 20.1559C5.29651 19.5049 4.49513 18.7035 3.84411 17.7876L3.40959 17.1763L4.6322 16.3072ZM20.5904 17.1763L20.1559 17.7876C19.5049 18.7035 18.7035 19.5049 17.7876 20.1559L17.1763 20.5904L16.3072 19.3678L16.9186 18.9333C17.6976 18.3795 18.3795 17.6976 18.9333 16.9186L19.3678 16.3072L20.5904 17.1763ZM9.83504 20.2563L10.5746 20.3811C11.0376 20.4592 11.5137 20.5 12 20.5C12.4863 20.5 12.9624 20.4592 13.4254 20.3811L14.165 20.2563L14.4145 21.7354L13.675 21.8602C13.1299 21.9522 12.5702 22 12 22C11.4298 22 10.8701 21.9522 10.325 21.8602L9.58547 21.7354L9.83504 20.2563Z"
        fill="currentColor" />
      <path
        d="M17.75 12C17.75 15.1757 15.1757 17.75 12 17.75C8.82436 17.75 6.25 15.1757 6.25 12C6.25 8.82436 8.82436 6.25 12 6.25C15.1757 6.25 17.75 8.82436 17.75 12Z"
        stroke="currentColor" stroke-width="1.5" />
    </symbol>
    <!-- trust-circle-filled -->
    <symbol id="trust-circle-filled" viewBox="0 0 24 24" fill="none">
      <path fill-rule="evenodd" clip-rule="evenodd"
        d="M10.325 2.13978C10.8701 2.0478 11.4298 2 12 2C12.5702 2 13.1299 2.0478 13.675 2.13978L14.4145 2.26457L14.165 3.74366L13.4254 3.61888C12.9624 3.54075 12.4863 3.5 12 3.5C11.5137 3.5 11.0376 3.54075 10.5746 3.61888L9.83504 3.74366L9.58547 2.26457L10.325 2.13978ZM7.69275 4.6322L7.08145 5.06672C6.30236 5.6205 5.6205 6.30236 5.06672 7.08145L4.6322 7.69275L3.40959 6.82371L3.84411 6.21241C4.49513 5.29651 5.29651 4.49513 6.21241 3.84411L6.82371 3.40959L7.69275 4.6322ZM17.1763 3.40959L17.7876 3.84411C18.7035 4.49513 19.5049 5.29651 20.1559 6.21241L20.5904 6.82371L19.3678 7.69275L18.9333 7.08145C18.3795 6.30236 17.6976 5.6205 16.9186 5.06672L16.3072 4.6322L17.1763 3.40959ZM3.74366 9.83504L3.61888 10.5746C3.54075 11.0376 3.5 11.5137 3.5 12C3.5 12.4863 3.54075 12.9624 3.61888 13.4254L3.74366 14.165L2.26457 14.4145L2.13978 13.675C2.0478 13.1299 2 12.5702 2 12C2 11.4298 2.0478 10.8701 2.13978 10.325L2.26457 9.58547L3.74366 9.83504ZM21.7354 9.58547L21.8602 10.325C21.9522 10.8701 22 11.4298 22 12C22 12.5702 21.9522 13.1299 21.8602 13.675L21.7354 14.4145L20.2563 14.165L20.3811 13.4254C20.4592 12.9624 20.5 12.4863 20.5 12C20.5 11.5137 20.4592 11.0376 20.3811 10.5746L20.2563 9.83504L21.7354 9.58547ZM4.6322 16.3072L5.06672 16.9186C5.6205 17.6976 6.30236 18.3795 7.08145 18.9333L7.69275 19.3678L6.82371 20.5904L6.21241 20.1559C5.29651 19.5049 4.49513 18.7035 3.84411 17.7876L3.40959 17.1763L4.6322 16.3072ZM20.5904 17.1763L20.1559 17.7876C19.5049 18.7035 18.7035 19.5049 17.7876 20.1559L17.1763 20.5904L16.3072 19.3678L16.9186 18.9333C17.6976 18.3795 18.3795 17.6976 18.9333 16.9186L19.3678 16.3072L20.5904 17.1763ZM9.83504 20.2563L10.5746 20.3811C11.0376 20.4592 11.5137 20.5 12 20.5C12.4863 20.5 12.9624 20.4592 13.4254 20.3811L14.165 20.2563L14.4145 21.7354L13.675 21.8602C13.1299 21.9522 12.5702 22 12 22C11.4298 22 10.8701 21.9522 10.325 21.8602L9.58547 21.7354L9.83504 20.2563Z"
        fill="currentColor" />
      <path
        d="M18.5 12C18.5 15.5899 15.5899 18.5 12 18.5C8.41015 18.5 5.5 15.5899 5.5 12C5.5 8.41015 8.41015 5.5 12 5.5C15.5899 5.5 18.5 8.41015 18.5 12Z"
        fill="currentColor" />
    </symbol>
    <!-- in-progress -->
    <symbol id="in-progress" viewBox="0 0 24 24" fill="none">
      <path
        d="M21 12C21 13.1819 20.7672 14.3522 20.3149 15.4442C19.8626 16.5361 19.1997 17.5282 18.364 18.364C17.5282 19.1997 16.5361 19.8626 15.4442 20.3149C14.3522 20.7672 13.1819 21 12 21C10.8181 21 9.64778 20.7672 8.55585 20.3149C7.46392 19.8626 6.47177 19.1997 5.63604 18.364C4.80031 17.5282 4.13738 16.5361 3.68508 15.4442C3.23279 14.3522 3 13.1819 3 12C3 10.8181 3.23279 9.64778 3.68508 8.55585C4.13738 7.46392 4.80031 6.47177 5.63604 5.63604C6.47177 4.80031 7.46392 4.13738 8.55585 3.68508C9.64778 3.23279 10.8181 3 12 3C13.1819 3 14.3522 3.23279 15.4442 3.68508C16.5361 4.13738 17.5282 4.80031 18.364 5.63604C19.1997 6.47177 19.8626 7.46392 20.3149 8.55585C20.7672 9.64778 21 10.8181 21 12L21 12Z"
        stroke="currentColor" stroke-width="1.5" stroke-opacity="0.33" />
      <path
        d="M12 3C13.5757 3 15.1237 3.41368 16.4894 4.19966C17.855 4.98564 18.9904 6.11638 19.782 7.47881C20.5735 8.84124 20.9935 10.3876 20.9999 11.9633C21.0064 13.5389 20.599 15.0887 19.8186 16.4575C19.0382 17.8264 17.9121 18.9663 16.5529 19.7634C15.1937 20.5605 13.6491 20.9868 12.0734 20.9997C10.4978 21.0126 8.94643 20.6115 7.57441 19.8367C6.2024 19.0619 5.05784 17.9405 4.2552 16.5845"
        stroke="currentColor" stroke-width="1.5" />
    </symbol>
    <!-- triangle-exclamation-filled -->
    <symbol id="triangle-exclamation-filled" viewBox="0 0 24 24" fill="none">
      <path fill-rule="evenodd" clip-rule="evenodd"
        d="M1.18359 20.0003L12.0011 1.78125L22.8187 20.0003H1.18359ZM12.75 9.00024V14.5002H11.25V9.00024H12.75ZM11.25 15.5002H12.75V17.0002H11.25V15.5002Z"
        fill="currentColor" />
    </symbol>
    <!-- triangle-exclamation -->
    <symbol id="triangle-exclamation" viewBox="0 0 24 24" fill="none">
      <path d="M12 9.75V13.75M12 16.24V16.25M12 3.25L2.5 19.25H21.5L12 3.25Z" stroke="currentColor"
        stroke-width="1.5" stroke-linecap="square" />
    </symbol>
    <!-- await-action -->
    <symbol id="await-action" viewBox="0 0 24 24" fill="none">
      <path fill-rule="evenodd" clip-rule="evenodd"
        d="M10.325 2.13978C10.8701 2.0478 11.4298 2 12 2C12.5702 2 13.1299 2.0478 13.675 2.13978L14.4145 2.26457L14.165 3.74366L13.4254 3.61888C12.9624 3.54075 12.4863 3.5 12 3.5C11.5137 3.5 11.0376 3.54075 10.5746 3.61888L9.83504 3.74366L9.58547 2.26457L10.325 2.13978ZM7.69275 4.6322L7.08145 5.06672C6.30236 5.6205 5.6205 6.30236 5.06672 7.08145L4.6322 7.69275L3.40959 6.82371L3.84411 6.21241C4.49513 5.29651 5.29651 4.49513 6.21241 3.84411L6.82371 3.40959L7.69275 4.6322ZM17.1763 3.40959L17.7876 3.84411C18.7035 4.49513 19.5049 5.29651 20.1559 6.21241L20.5904 6.82371L19.3678 7.69275L18.9333 7.08145C18.3795 6.30236 17.6976 5.6205 16.9186 5.06672L16.3072 4.6322L17.1763 3.40959ZM3.74366 9.83504L3.61888 10.5746C3.54075 11.0376 3.5 11.5137 3.5 12C3.5 12.4863 3.54075 12.9624 3.61888 13.4254L3.74366 14.165L2.26457 14.4145L2.13978 13.675C2.0478 13.1299 2 12.5702 2 12C2 11.4298 2.0478 10.8701 2.13978 10.325L2.26457 9.58547L3.74366 9.83504ZM21.7354 9.58547L21.8602 10.325C21.9522 10.8701 22 11.4298 22 12C22 12.5702 21.9522 13.1299 21.8602 13.675L21.7354 14.4145L20.2563 14.165L20.3811 13.4254C20.4592 12.9624 20.5 12.4863 20.5 12C20.5 11.5137 20.4592 11.0376 20.3811 10.5746L20.2563 9.83504L21.7354 9.58547ZM4.6322 16.3072L5.06672 16.9186C5.6205 17.6976 6.30236 18.3795 7.08145 18.9333L7.69275 19.3678L6.82371 20.5904L6.21241 20.1559C5.29651 19.5049 4.49513 18.7035 3.84411 17.7876L3.40959 17.1763L4.6322 16.3072ZM20.5904 17.1763L20.1559 17.7876C19.5049 18.7035 18.7035 19.5049 17.7876 20.1559L17.1763 20.5904L16.3072 19.3678L16.9186 18.9333C17.6976 18.3795 18.3795 17.6976 18.9333 16.9186L19.3678 16.3072L20.5904 17.1763ZM9.83504 20.2563L10.5746 20.3811C11.0376 20.4592 11.5137 20.5 12 20.5C12.4863 20.5 12.9624 20.4592 13.4254 20.3811L14.165 20.2563L14.4145 21.7354L13.675 21.8602C13.1299 21.9522 12.5702 22 12 22C11.4298 22 10.8701 21.9522 10.325 21.8602L9.58547 21.7354L9.83504 20.2563Z"
        fill="currentColor" />
    </symbol>
    <!-- wallet-2 -->
    <symbol id="wallet-2" viewBox="0 0 24 24" fill="none">
      <path
        d="M16.25 8.75H6C4.75736 8.75 3.75 7.74264 3.75 6.5C3.75 4.98122 4.98122 3.75 6.5 3.75H16.25V8.75ZM16.25 8.75H20.25V20.25H6.75C5.09315 20.25 3.75 18.9069 3.75 17.25V7.25"
        stroke="currentColor" stroke-width="1.5" stroke-linecap="square" />
      <path
        d="M15.5 15.25C15.9142 15.25 16.25 14.9142 16.25 14.5C16.25 14.0858 15.9142 13.75 15.5 13.75C15.0858 13.75 14.75 14.0858 14.75 14.5C14.75 14.9142 15.0858 15.25 15.5 15.25Z"
        fill="currentColor" stroke="currentColor" stroke-width="0.5" />
    </symbol>
    <!-- chevron-bottom -->
    <symbol id="chevron-bottom" viewBox="0 0 24 24" fill="none">
      <path d="M20 9L12 17L4 9" stroke="currentColor" stroke-width="1.5" stroke-linecap="square" />
    </symbol>
    <!-- circle-placeholder -->
    <symbol id="circle-placeholder" viewBox="0 0 24 24" fill="none">
      <path
        d="M21.25 12C21.25 17.1086 17.1086 21.25 12 21.25C6.89137 21.25 2.75 17.1086 2.75 12C2.75 6.89137 6.89137 2.75 12 2.75C17.1086 2.75 21.25 6.89137 21.25 12Z"
        stroke="currentColor" stroke-width="1.5" stroke-linecap="square" />
    </symbol>
    <!-- anchor -->
    <symbol id="anchor" viewBox="0 0 24 24" fill="none">
      <path
        d="M12 21V9M18 12H21.25C21.25 17.1086 17.1086 21.25 12 21.25C6.89137 21.25 2.75 17.1086 2.75 12H6M14.75 5.5C14.75 7.01878 13.5188 8.25 12 8.25C10.4812 8.25 9.25 7.01878 9.25 5.5C9.25 3.98122 10.4812 2.75 12 2.75C13.5188 2.75 14.75 3.98122 14.75 5.5Z"
        stroke="currentColor" stroke-width="1.5" stroke-linecap="square" />
    </symbol>
    <!-- airdrop -->
    <symbol id="airdrop" viewBox="0 0 24 24" fill="none">
      <path d="M7.75 21.25V16.75H16.25V21.25H7.75Z" stroke="currentColor" stroke-width="1.5" />
      <path d="M3.75 10.75L10.9688 16.75M13.0312 16.75L20.25 10.75" stroke="" stroke-width="1.5" />
      <path d="M12 10.75V16.25" stroke="currentColor" stroke-width="1.5" />
      <path
        d="M12 2.75C7.44365 2.75 3.75 6.44365 3.75 11C3.75 11 8.77189 10.4844 12 10.4844C15.2281 10.4844 20.25 11 20.25 11C20.25 6.44365 16.5563 2.75 12 2.75Z"
        stroke="currentColor" stroke-width="1.5" />
    </symbol>
    <!-- arrow-corner-down-left -->
    <symbol id="arrow-corner-down-left" viewBox="0 0 24 24" fill="none">
      <path d="M20.25 4.75V15.25H4.75M7.75 11.25L3.75 15.25L7.75 19.25" stroke="currentColor"
        stroke-width="1.5" stroke-linecap="square" />
    </symbol>
    <!-- ethereum -->
    <symbol id="ethereum" viewBox="0 0 24 24" fill="none">
      <path
        d="M15 12.375L12 13.5L9 12.375M12 6.5L8 12L12 17.5L16 12L12 6.5ZM21.25 12C21.25 17.1086 17.1086 21.25 12 21.25C6.89137 21.25 2.75 17.1086 2.75 12C2.75 6.89137 6.89137 2.75 12 2.75C17.1086 2.75 21.25 6.89137 21.25 12Z"
        stroke="currentColor" stroke-width="1.5" stroke-linecap="round" />
    </symbol>
    <!-- map -->
    <symbol id="map" viewBox="0 0 24 24" fill="none">
      <path
        d="M15.25 6.5L8.75 4.5L2.75 6.5V19.5L8.75 17.5M15.25 6.5L21.25 4.5V17.5L15.25 19.5L8.75 17.5M15.25 6.5V19M8.75 17.5V5"
        stroke="currentColor" stroke-width="1.5" stroke-linecap="square" />
    </symbol>
    <!-- cross-small -->
    <symbol id="cross-small" viewBox="0 0 24 24" fill="none">
      <path d="M7.75 7.75L16.25 16.25M16.25 7.75L7.75 16.25" stroke="currentColor"
        stroke-width="1.5" stroke-linecap="square" />
    </symbol>
    <!-- circle-info -->
    <symbol id="circle-info" viewBox="0 0 24 24" fill="none">
      <path
        d="M10.75 11H12V16.25M21.25 12C21.25 17.1086 17.1086 21.25 12 21.25C6.89137 21.25 2.75 17.1086 2.75 12C2.75 6.89137 6.89137 2.75 12 2.75C17.1086 2.75 21.25 6.89137 21.25 12Z"
        stroke="currentColor" stroke-width="1.5" stroke-linecap="square" />
      <path d="M11.5 7.375H11.375V7.5V8.5V8.625H11.5H12.5H12.625V8.5V7.5V7.375H12.5H11.5Z"
        fill="currentColor" stroke="currentColor" stroke-width="0.25" />
    </symbol>
    <!-- circle-check-filled -->
    <symbol id="circle-check-filled" viewBox="0 0 24 24" fill="none">
      <path fill-rule="evenodd" clip-rule="evenodd"
        d="M12 2C6.47715 2 2 6.47715 2 12C2 17.5228 6.47715 22 12 22C17.5228 22 22 17.5228 22 12C22 6.47715 17.5228 2 12 2ZM16.0554 9.39446L14.8945 8.4446L10.4443 13.8837L8.5 11.9393L7.43934 13L10.5557 16.1163L16.0554 9.39446Z"
        fill="currentColor" />
    </symbol>
    <!-- fingerprint-filled -->
    <symbol id="fingerprint-filled" viewBox="0 0 24 24" fill="none">
      <path fill-rule="evenodd" clip-rule="evenodd"
        d="M12 22C17.5228 22 22 17.5228 22 12C22 6.47715 17.5228 2 12 2C6.47715 2 2 6.47715 2 12C2 17.5228 6.47715 22 12 22ZM10.0975 7.34738C10.7348 7.05876 11.4508 6.89659 12.2091 6.89659C14.8745 6.89659 17.0351 8.90444 17.0351 11.3812C17.0351 12.6298 16.9115 13.851 16.6751 15.0351L16.5871 15.4759L17.5357 15.6395L17.6237 15.1987C17.8709 13.9608 18 12.6849 18 11.3812C18 8.40927 15.4073 6 12.2091 6C11.3012 6 10.4408 6.19447 9.6748 6.54143L10.0975 7.34738ZM7.383 11.3812C7.383 10.1868 7.88491 9.10219 8.70439 8.29811L8.00384 7.68158C7.02142 8.64555 6.41815 9.94842 6.41815 11.3812C6.41815 12.2003 6.31265 12.9959 6.1138 13.7571L6 14.1927L6.93762 14.4042L7.05142 13.9686C7.26823 13.1387 7.383 12.2721 7.383 11.3812ZM10.0373 11.3812C10.0373 10.2666 11.0096 9.36307 12.2091 9.36307C13.4085 9.36307 14.3809 10.2666 14.3809 11.3812C14.3809 11.9906 14.3473 12.5923 14.2817 13.1853L15.2415 13.2769C15.3104 12.6536 15.3458 12.0212 15.3458 11.3812C15.3458 9.77146 13.9415 8.46648 12.2091 8.46648C10.4767 8.46648 9.07241 9.77146 9.07241 11.3812C9.07241 12.4533 8.92729 13.4933 8.65455 14.4853L9.58937 14.7072C9.88189 13.6433 10.0373 12.5288 10.0373 11.3812ZM12.6918 11.3812V10.9329H11.7269V11.3812C11.7269 13.0347 11.4386 14.6246 10.9065 16.1105C10.7696 16.4929 10.6165 16.8684 10.448 17.2365L10.2591 17.649L11.1469 18L11.3358 17.5875C11.5145 17.1973 11.6768 16.7991 11.822 16.3936C12.3864 14.8175 12.6918 13.1321 12.6918 11.3812ZM14.1031 14.3876C14.0118 14.8756 13.8987 15.3565 13.7648 15.8296C13.6324 16.2971 13.4797 16.7568 13.3075 17.2081L13.1463 17.6307L14.0558 17.9302L14.2169 17.5077C14.398 17.0331 14.5587 16.5494 14.6979 16.0577C14.8388 15.5601 14.9577 15.0543 15.0537 14.5411L14.1031 14.3876ZM8.374 15.3678C8.27546 15.6402 8.16709 15.9083 8.0493 16.1719L7.86428 16.586L8.75536 16.9298L8.94037 16.5158C9.06668 16.2331 9.18287 15.9456 9.28853 15.6536L8.374 15.3678Z"
        fill="currentColor" />
    </symbol>
    <!-- claim-filled -->
    <symbol id="claim-filled" viewBox="0 0 24 24" fill="none">
      <path fill-rule="evenodd" clip-rule="evenodd"
        d="M2 8.75C2 5.57436 4.57436 3 7.75 3H16.25C19.4256 3 22 5.57436 22 8.75V15.25C22 18.4256 19.4256 21 16.25 21H2V8.75ZM8 9V10.5H16V9H8ZM8 13.5V15H13V13.5H8Z"
        fill="currentColor" />
    </symbol>
    <!-- circle-plus-filled -->
    <symbol id="circle-plus-filled" viewBox="0 0 24 24" fill="none">
      <path fill-rule="evenodd" clip-rule="evenodd"
        d="M2 12C2 6.47715 6.47715 2 12 2C17.5228 2 22 6.47715 22 12C22 17.5228 17.5228 22 12 22C6.47715 22 2 17.5228 2 12ZM12.75 7.00781H11.25V11.2505H7.00736V12.7505H11.25V16.9931H12.75V12.7505H16.9926V11.2505H12.75V7.00781Z"
        fill="currentColor" />
    </symbol>
    <!-- arrow-down-circle-filled -->
    <symbol id="arrow-down-circle-filled" viewBox="0 0 24 24" fill="none">
      <path fill-rule="evenodd" clip-rule="evenodd"
        d="M22 12C22 17.5228 17.5228 22 12 22C6.47715 22 2 17.5228 2 12C2 6.47715 6.47715 2 12 2C17.5228 2 22 6.47715 22 12ZM12 17.3107L7.68934 13L8.75 11.9393L11.25 14.4393V7H12.75V14.4393L15.25 11.9393L16.3107 13L12 17.3107Z"
        fill="currentColor" />
    </symbol>
    <!-- people-add-filled -->
    <symbol id="people-add-filled" viewBox="0 0 24 24" fill="none">
      <path
        d="M7.5 6.5C7.5 4.01472 9.51472 2 12 2C14.4853 2 16.5 4.01472 16.5 6.5C16.5 8.98528 14.4853 11 12 11C9.51472 11 7.5 8.98528 7.5 6.5Z"
        fill="currentColor" />
      <path
        d="M12.1603 12.5014L12.1435 12.5011C12.0959 12.5004 12.0475 12.5 11.9996 12.5C11.9459 12.5 11.8923 12.5005 11.8389 12.5014C11.7356 12.5032 11.6329 12.5067 11.5309 12.5119C11.3097 12.5233 11.0916 12.5426 10.8767 12.5697L10.8739 12.5701L10.8148 12.5778L10.8119 12.5782L10.8085 12.5786L10.74 12.5881C10.5809 12.6107 10.4237 12.6377 10.2685 12.6688C6.57477 13.4093 4.10097 16.4772 3.75289 20.1798L3.67578 21H12.9996V16H15.9996V13.4714L15.5669 13.2694C15.4759 13.2269 15.3838 13.1861 15.2907 13.1468C14.9374 12.998 14.5697 12.8732 14.1887 12.7741L12.1603 12.5014Z"
        fill="currentColor" />
      <path
        d="M12.1603 12.5014C12.4875 12.5071 12.8085 12.5301 13.1225 12.5697L13.1335 12.5711C13.2211 12.5823 13.3082 12.5947 13.3947 12.6085C13.4507 12.6174 13.5065 12.6268 13.562 12.6368L13.563 12.637L13.5848 12.6409C13.6484 12.6525 13.7118 12.6648 13.7748 12.6778L12.1603 12.5014Z"
        fill="currentColor" />
      <path d="M22 17.5H19V14.5H17.5V17.5H14.5V19H17.5V22H19V19H22V17.5Z" fill="currentColor" />
    </symbol>
    <!-- arrow-up-circle-filled -->
    <symbol id="arrow-up-circle-filled" viewBox="0 0 24 24" fill="none">
      <path fill-rule="evenodd" clip-rule="evenodd"
        d="M2 12C2 6.47715 6.47715 2 12 2C17.5228 2 22 6.47715 22 12C22 17.5228 17.5228 22 12 22C6.47715 22 2 17.5228 2 12ZM12 6.68934L16.3107 11L15.25 12.0607L12.75 9.56066V17H11.25V9.56066L8.75 12.0607L7.68934 11L12 6.68934Z"
        fill="currentColor" />
    </symbol>
    <!-- circle-x-filled -->
    <symbol id="circle-x-filled" viewBox="0 0 24 24" fill="none">
      <path fill-rule="evenodd" clip-rule="evenodd"
        d="M2 12C2 6.47715 6.47715 2 12 2C17.5228 2 22 6.47715 22 12C22 17.5228 17.5228 22 12 22C6.47715 22 2 17.5228 2 12ZM9 7.93934L7.93934 9L10.9393 12L7.93934 15L9 16.0607L12 13.0607L15 16.0607L16.0607 15L13.0607 12L16.0607 9L15 7.93934L12 10.9393L9 7.93934Z"
        fill="currentColor" />
    </symbol>
    <!-- people-remove-filled -->
    <symbol id="people-remove-filled" viewBox="0 0 24 24" fill="none">
      <path
        d="M12 2C9.51472 2 7.5 4.01472 7.5 6.5C7.5 8.98528 9.51472 11 12 11C14.4853 11 16.5 8.98528 16.5 6.5C16.5 4.01472 14.4853 2 12 2Z"
        fill="currentColor" />
      <path
        d="M12.1603 12.5014L12.1428 12.5011C12.0952 12.5004 12.0475 12.5 11.9996 12.5C11.9459 12.5 11.8923 12.5005 11.8389 12.5014C11.7356 12.5032 11.6329 12.5067 11.5309 12.5119C11.3097 12.5233 11.0916 12.5426 10.8767 12.5697L10.812 12.5781L10.8083 12.5786L10.74 12.5881C10.5809 12.6107 10.4237 12.6377 10.2685 12.6688C10.0945 12.7037 9.92329 12.7437 9.75487 12.7887L9.08507 12.9629L9.09365 12.9959C8.93571 13.0529 8.78059 13.1145 8.62839 13.1805L8.01727 13.438L8.03085 13.4702C5.59496 14.7806 4.02489 17.2864 3.75289 20.1798L3.67578 21H13.8184L12.8184 20L14.8184 18L12.8184 16L15.5587 13.2597L15.3498 13.1717C15.0502 13.0428 14.7394 12.9309 14.4179 12.8373C14.3671 12.8225 14.3159 12.8081 14.2645 12.7942L12.1603 12.5014Z"
        fill="currentColor" />
      <path
        d="M12.1603 12.5014C12.4875 12.5071 12.8085 12.5301 13.1225 12.5697L13.1335 12.5711C13.2211 12.5823 13.3082 12.5947 13.3947 12.6085L14.1354 12.7261L14.1302 12.7591L14.1887 12.7741L12.1603 12.5014Z"
        fill="currentColor" />
      <path
        d="M19.0608 18L21.0608 16L20.0001 14.9393L18.0001 16.9393L16.0001 14.9393L14.9395 16L16.9395 18L14.9395 20L16.0001 21.0606L18.0001 19.0607L20.0001 21.0607L21.0608 20L19.0608 18Z"
        fill="currentColor" />
    </symbol>
    <!-- people-add -->
    <symbol id="people-add" viewBox="0 0 24 24" fill="none">
      <path
        d="M4.49996 20.25L3.75325 20.1798L3.67615 21H4.49996V20.25ZM13.8116 14.2259L14.5375 14.4146L14.915 12.9629L14.1892 12.7741L13.8116 14.2259ZM12.5 21H13.25V19.5H12.5V21ZM9.81129 12.7741L9.08543 12.9629L9.46297 14.4146L10.1889 14.2259L9.81129 12.7741ZM19 15.25V14.5H17.5V15.25H19ZM17.5 21.25V22H19V21.25H17.5ZM15.25 17.5H14.5V19H15.25V17.5ZM21.25 19H22V17.5H21.25V19ZM15 6.5C15 8.15685 13.6569 9.5 12 9.5V11C14.4853 11 16.5 8.98528 16.5 6.5H15ZM12 9.5C10.3431 9.5 8.99996 8.15685 8.99996 6.5H7.49996C7.49996 8.98528 9.51468 11 12 11V9.5ZM8.99996 6.5C8.99996 4.84315 10.3431 3.5 12 3.5V2C9.51468 2 7.49996 4.01472 7.49996 6.5H8.99996ZM12 3.5C13.6569 3.5 15 4.84315 15 6.5H16.5C16.5 4.01472 14.4853 2 12 2V3.5ZM5.24667 20.3202C5.57924 16.7825 8.1744 14.0652 11.8653 14.0012L11.8393 12.5014C7.30715 12.58 4.14987 15.9609 3.75325 20.1798L5.24667 20.3202ZM11.8653 14.0012C11.91 14.0004 11.9549 14 12 14V12.5C11.9463 12.5 11.8927 12.5005 11.8393 12.5014L11.8653 14.0012ZM12 14C12.3212 14 12.6331 14.0198 12.9351 14.0579L13.1229 12.5697C12.7576 12.5236 12.383 12.5 12 12.5V14ZM12.9351 14.0579C13.2371 14.096 13.5295 14.1525 13.8116 14.2259L14.1892 12.7741C13.844 12.6844 13.4882 12.6158 13.1229 12.5697L12.9351 14.0579ZM4.49996 21H12.5V19.5H4.49996V21ZM11.8393 12.5014C11.1313 12.5137 10.4534 12.6072 9.81129 12.7741L10.1889 14.2259C10.7134 14.0894 11.2732 14.0114 11.8653 14.0012L11.8393 12.5014ZM15.2911 13.1468C14.6176 12.8631 13.8918 12.6667 13.1229 12.5697L12.9351 14.0579C13.5701 14.1381 14.1631 14.2993 14.7089 14.5292L15.2911 13.1468ZM17.5 15.25V18.25H19V15.25H17.5ZM17.5 18.25V21.25H19V18.25H17.5ZM15.25 19H18.25V17.5H15.25V19ZM18.25 19H21.25V17.5H18.25V19Z"
        fill="currentColor" />
    </symbol>
    <!-- people-added -->
    <symbol id="people-added" viewBox="0 0 24 24" fill="none">
      <path
        d="M4.49996 20.25L3.75325 20.1798L3.67615 21H4.49996V20.25ZM13.8116 14.2259L14.5375 14.4146L14.915 12.9629L14.1892 12.7741L13.8116 14.2259ZM11.25 21H12V19.5H11.25V21ZM9.81129 12.7741L9.08543 12.9629L9.46297 14.4146L10.1889 14.2259L9.81129 12.7741ZM14.7089 14.5292L15.4001 14.8203L15.9823 13.438L15.2911 13.1468L14.7089 14.5292ZM15.2 18L14.6 17.55L13.7 18.75L14.3 19.2L15.2 18ZM16.95 20.25L16.5 20.85L17.1653 21.349L17.5931 20.6359L16.95 20.25ZM20.8931 15.1359L21.279 14.4928L19.9928 13.721L19.6069 14.3641L20.8931 15.1359ZM15 6.5C15 8.15685 13.6569 9.5 12 9.5V11C14.4853 11 16.5 8.98528 16.5 6.5H15ZM12 9.5C10.3431 9.5 8.99996 8.15685 8.99996 6.5H7.49996C7.49996 8.98528 9.51468 11 12 11V9.5ZM8.99996 6.5C8.99996 4.84315 10.3431 3.5 12 3.5V2C9.51468 2 7.49996 4.01472 7.49996 6.5H8.99996ZM12 3.5C13.6569 3.5 15 4.84315 15 6.5H16.5C16.5 4.01472 14.4853 2 12 2V3.5ZM5.24667 20.3202C5.57924 16.7825 8.1744 14.0652 11.8653 14.0012L11.8393 12.5014C7.30715 12.58 4.14987 15.9609 3.75325 20.1798L5.24667 20.3202ZM11.8653 14.0012C11.91 14.0004 11.9549 14 12 14V12.5C11.9463 12.5 11.8927 12.5005 11.8393 12.5014L11.8653 14.0012ZM12 14C12.3212 14 12.6331 14.0198 12.9351 14.0579L13.1229 12.5697C12.7576 12.5236 12.383 12.5 12 12.5V14ZM12.9351 14.0579C13.2371 14.096 13.5295 14.1525 13.8116 14.2259L14.1892 12.7741C13.844 12.6844 13.4882 12.6158 13.1229 12.5697L12.9351 14.0579ZM4.49996 21H11.25V19.5H4.49996V21ZM11.8393 12.5014C11.1313 12.5137 10.4534 12.6072 9.81129 12.7741L10.1889 14.2259C10.7134 14.0894 11.2732 14.0114 11.8653 14.0012L11.8393 12.5014ZM15.2911 13.1468C14.6176 12.8631 13.8918 12.6667 13.1229 12.5697L12.9351 14.0579C13.5701 14.1381 14.1631 14.2993 14.7089 14.5292L15.2911 13.1468ZM14.3 19.2L16.5 20.85L17.4 19.65L15.2 18L14.3 19.2ZM17.5931 20.6359L20.8931 15.1359L19.6069 14.3641L16.3069 19.8641L17.5931 20.6359Z"
        fill="currentColor" />
    </symbol>
    <!-- megaphone-2 -->
    <symbol id="megaphone-2" viewBox="0 0 24 24" fill="none">
      <path
        d="M18.2461 14C19.9029 14 21.2461 12.6569 21.2461 11C21.2461 9.34319 19.9029 8.00005 18.2461 8.00005M12.5754 18.25C12.1636 19.4152 11.0523 20.25 9.74609 20.25C8.08924 20.25 6.74609 18.9069 6.74609 17.25V15.75M6.74829 6.25005V15.75M18.2461 5.46072V16.5394C18.2461 17.8858 16.9426 18.8476 15.6561 18.4504L4.15607 14.8997C3.31782 14.6409 2.74609 13.866 2.74609 12.9887V9.01141C2.74609 8.13412 3.31782 7.35924 4.15607 7.10043L15.6561 3.54973C16.9426 3.15252 18.2461 4.1143 18.2461 5.46072Z"
        stroke="currentColor" stroke-width="1.5" stroke-linecap="round" stroke-linejoin="round" />
    </symbol>
    <!-- bookmark -->
    <symbol id="bookmark" viewBox="0 0 24 24" fill="none">
      <path
        d="M5 21V5C5 4.45 5.19583 3.97917 5.5875 3.5875C5.97917 3.19583 6.45 3 7 3H17C17.55 3 18.0208 3.19583 18.4125 3.5875C18.8042 3.97917 19 4.45 19 5V21L12 18L5 21ZM7 17.95L12 15.8L17 17.95V5H7V17.95Z"
        fill="currentColor" />
    </symbol>
    <!-- bookmark-filled -->
    <symbol id="bookmark-filled" viewBox="0 0 24 24" fill="none">
      <path fill-rule="evenodd" clip-rule="evenodd"
        d="M5 5V21L12 18L19 21V5C19 4.45 18.8042 3.97917 18.4125 3.5875C18.0208 3.19583 17.55 3 17 3H7C6.45 3 5.97917 3.19583 5.5875 3.5875C5.19583 3.97917 5 4.45 5 5ZM9.8803 9.81969L9.34997 9.28935L8.28931 10.35L8.81964 10.8803L10.4697 12.5303L11 13.0607L11.5303 12.5303L15.3803 8.68035L15.9107 8.15002L14.85 7.08936L14.3197 7.61969L11 10.9394L9.8803 9.81969Z"
        fill="currentColor" />
    </symbol>
    <!-- home-door -->
    <symbol id="home-door" viewBox="0 0 24 24" fill="none">
      <path
        d="M19.4999 9.7664V17.05H20.9999V9.7664H19.4999ZM17.0499 19.5H6.94995V21H17.0499V19.5ZM4.49995 17.05V9.7664H2.99995V17.05H4.49995ZM5.39852 7.8702L10.4485 3.73838L9.49866 2.57745L4.44866 6.70927L5.39852 7.8702ZM13.5513 3.73838L18.6013 7.8702L19.5512 6.70927L14.5012 2.57745L13.5513 3.73838ZM10.4485 3.73838C10.818 3.43606 11.0639 3.23545 11.2666 3.09332C11.4615 2.95663 11.5735 2.90554 11.6613 2.88083L11.255 1.43691C10.9411 1.52525 10.6718 1.67834 10.4053 1.86525C10.1465 2.04672 9.85108 2.2891 9.49866 2.57745L10.4485 3.73838ZM14.5012 2.57745C14.1488 2.2891 13.8533 2.04672 13.5945 1.86525C13.328 1.67834 13.0587 1.52525 12.7448 1.43691L12.3385 2.88083C12.4263 2.90554 12.5383 2.95663 12.7332 3.09332C12.9359 3.23545 13.1818 3.43606 13.5513 3.73838L14.5012 2.57745ZM11.6613 2.88083C11.8827 2.81853 12.1171 2.81853 12.3385 2.88083L12.7448 1.43691C12.2577 1.29984 11.7421 1.29984 11.255 1.43691L11.6613 2.88083ZM6.94995 19.5C6.37752 19.5 5.99331 19.4994 5.69743 19.4752C5.4103 19.4518 5.27302 19.4099 5.18246 19.3637L4.50148 20.7003C4.83874 20.8721 5.19539 20.9392 5.57528 20.9702C5.94641 21.0006 6.40227 21 6.94995 21V19.5ZM2.99995 17.05C2.99995 17.5977 2.99937 18.0535 3.02969 18.4247C3.06073 18.8045 3.12784 19.1612 3.29968 19.4985L4.63619 18.8175C4.59005 18.7269 4.54817 18.5896 4.52471 18.3025C4.50053 18.0066 4.49995 17.6224 4.49995 17.05H2.99995ZM5.18246 19.3637C4.94726 19.2439 4.75603 19.0527 4.63619 18.8175L3.29968 19.4985C3.56333 20.0159 3.98403 20.4366 4.50148 20.7003L5.18246 19.3637ZM19.4999 17.05C19.4999 17.6224 19.4993 18.0066 19.4751 18.3025C19.4517 18.5896 19.4098 18.7269 19.3637 18.8175L20.7002 19.4985C20.872 19.1612 20.9391 18.8045 20.9702 18.4247C21.0005 18.0535 20.9999 17.5977 20.9999 17.05H19.4999ZM17.0499 21C17.5976 21 18.0534 21.0006 18.4246 20.9702C18.8045 20.9392 19.1611 20.8721 19.4984 20.7003L18.8174 19.3637C18.7268 19.4099 18.5895 19.4518 18.3024 19.4752C18.0065 19.4994 17.6223 19.5 17.0499 19.5V21ZM19.3637 18.8175C19.2438 19.0527 19.0526 19.2439 18.8174 19.3637L19.4984 20.7003C20.0159 20.4366 20.4365 20.0159 20.7002 19.4985L19.3637 18.8175ZM20.9999 9.7664C20.9999 9.25033 21.0061 8.85313 20.9035 8.47611L19.4561 8.86973C19.4937 9.00817 19.4999 9.16814 19.4999 9.7664H20.9999ZM18.6013 7.8702C19.0644 8.24904 19.1843 8.3551 19.2676 8.47191L20.4888 7.60091C20.2619 7.28282 19.9506 7.03606 19.5512 6.70927L18.6013 7.8702ZM20.9035 8.47611C20.8181 8.16214 20.6777 7.86581 20.4888 7.60091L19.2676 8.47191C19.3535 8.59232 19.4173 8.72702 19.4561 8.86973L20.9035 8.47611ZM4.49995 9.7664C4.49995 9.16814 4.50611 9.00817 4.54375 8.86973L3.09632 8.47611C2.99379 8.85313 2.99995 9.25032 2.99995 9.7664H4.49995ZM4.44866 6.70927C4.04924 7.03606 3.73793 7.28282 3.51106 7.60091L4.73227 8.47191C4.81558 8.3551 4.93549 8.24904 5.39852 7.8702L4.44866 6.70927ZM4.54375 8.86973C4.58256 8.72701 4.64639 8.59232 4.73227 8.47191L3.51106 7.60091C3.32213 7.86581 3.1817 8.16214 3.09632 8.47611L4.54375 8.86973ZM10.7499 13.5H13.2499V12H10.7499V13.5ZM14.4999 14.75V20.25H15.9999V14.75H14.4999ZM9.49995 20.25V14.75H7.99995V20.25H9.49995ZM13.2499 13.5C13.9403 13.5 14.4999 14.0596 14.4999 14.75H15.9999C15.9999 13.2312 14.7687 12 13.2499 12V13.5ZM10.7499 12C9.23117 12 7.99995 13.2312 7.99995 14.75H9.49995C9.49995 14.0596 10.0595 13.5 10.7499 13.5V12Z"
        fill="currentColor" />
    </symbol>
    <!-- claim -->
    <symbol id="claim" viewBox="0 0 24 24" fill="none">
      <path
        d="M15.25 9.75H8.75M12.25 14.25H8.75M2.75 20.25H16.25C19.0114 20.25 21.25 18.0114 21.25 15.25V8.75C21.25 5.98858 19.0114 3.75 16.25 3.75H7.75C4.98858 3.75 2.75 5.98858 2.75 8.75V20.25Z"
        stroke="currentColor" stroke-width="1.5" stroke-linecap="round" stroke-linejoin="round" />
    </symbol>
    <!-- file-text -->
    <symbol id="file-text" viewBox="0 0 24 24" fill="none">
      <path
        d="M8.75 13.25H12.25M8.75 17.25H15.25M12.75 3.25309V9.25H18.7461M4.75 2.75H12.75L19.25 9.25V21.25H4.75V2.75Z"
        stroke="currentColor" stroke-width="1.5" stroke-linecap="square" />
    </symbol>
    <!-- inbox-empty -->
    <symbol id="inbox-empty" viewBox="0 0 24 24" fill="none">
      <path
        d="M2 12.75H8.4125L9.95 14.75H14.05L15.5875 12.75H22M22.25 12.75L18.15 4.75H5.85L1.75 12.75V19.25H22.25V12.75Z"
        stroke="currentColor" stroke-width="1.5" />
    </symbol>
    <!-- gift -->
    <symbol id="gift" viewBox="0 0 24 24" fill="none">
      <path
        d="M12 7.5V5.83333M12 7.5H10.3333C8.49238 7.5 7 6.00762 7 4.16667C7 3.24619 7.74619 2.5 8.66667 2.5C10.5076 2.5 12 3.99238 12 5.83333M12 7.5H13.6667C15.5076 7.5 17 6.00762 17 4.16667C17 3.24619 16.2538 2.5 15.3333 2.5C13.4924 2.5 12 3.99238 12 5.83333M12 7.5H5.5C4.39543 7.5 3.5 8.39543 3.5 9.5C3.5 10.2403 3.9022 10.8866 4.5 11.2324M12 7.5H18.5C19.6046 7.5 20.5 8.39543 20.5 9.5C20.5 10.2403 20.0978 10.8866 19.5 11.2324M12 7.5V11.5M4.5 11.2324V18.5C4.5 19.6046 5.39543 20.5 6.5 20.5H12M4.5 11.2324V11M4.5 11.2324C4.79417 11.4026 5.13571 11.5 5.5 11.5H12M19.5 11.2324V18.5C19.5 19.6046 18.6046 20.5 17.5 20.5H12M19.5 11.2324V11M19.5 11.2324C19.2058 11.4026 18.8643 11.5 18.5 11.5H12M12 11.5V20.5"
        stroke="currentColor" stroke-width="1.5" stroke-linejoin="round" />
    </symbol>
    <!-- copy -->
    <symbol id="copy" viewBox="0 0 24 24" fill="none">
      <path
        d="M8.75 8V8.75M8.75 5V4.75C8.75 3.64543 9.64543 2.75 10.75 2.75H11M19 2.75H19.25C20.3546 2.75 21.25 3.64543 21.25 4.75V5M14 2.75H16M21.25 8V10M21.25 13V13.25C21.25 14.3546 20.3546 15.25 19.25 15.25H19M16 15.25H15.25M14 8.75H4C3.30964 8.75 2.75 9.30964 2.75 10V20C2.75 20.6904 3.30964 21.25 4 21.25H14C14.6904 21.25 15.25 20.6904 15.25 20V10C15.25 9.30964 14.6904 8.75 14 8.75Z"
        stroke="currentColor" stroke-width="1.5" stroke-linecap="round" stroke-linejoin="round" />
    </symbol>
    <!-- chain-link -->
    <symbol id="chain-link" viewBox="0 0 24 24" fill="none">
      <path fill-rule="evenodd" clip-rule="evenodd"
        d="M18.9125 5.08755C16.7957 2.97082 13.3638 2.97082 11.2471 5.08755L9.75027 6.58437L8.68961 5.52371L10.1864 4.02689C12.889 1.32437 17.2706 1.32437 19.9731 4.02689C22.6756 6.7294 22.6756 11.111 19.9731 13.8136L18.4742 15.3125L17.4135 14.2519L18.9125 12.7529C21.0292 10.6362 21.0292 7.20428 18.9125 5.08755ZM15.5607 9.5L9.5 15.5607L8.43934 14.5L14.5 8.43934L15.5607 9.5ZM6.58952 9.74513L5.08755 11.2471C2.97082 13.3638 2.97082 16.7957 5.08755 18.9125C7.20428 21.0292 10.6362 21.0292 12.7529 18.9125L14.2478 17.4176L15.3084 18.4782L13.8136 19.9731C11.1111 22.6756 6.72941 22.6756 4.02689 19.9731C1.32437 17.2706 1.32437 12.889 4.02689 10.1864L5.52886 8.68446L6.58952 9.74513Z"
        fill="currentColor" />
    </symbol>
    <!-- hamburger -->
    <symbol id="hamburger" viewBox="0 0 24 24" fill="none">
      <path d="M2.75 12H21.25M2.75 5.75H21.25M2.75 18.25H21.25" stroke="currentColor"
        stroke-width="1.5" stroke-linecap="square" />
    </symbol>
    <!-- avatar-sparkle -->
    <symbol id="avatar-sparkle" viewBox="0 0 24 24" fill="none">
      <path
        d="M3.75 20.25H3V21H3.75V20.25ZM3.75 3.74999V2.99999H3V3.74999H3.75ZM11.25 4.49999H12V2.99999H11.25V4.49999ZM21 12.75V12H19.5V12.75H21ZM20.25 20.25V21H21V20.25H20.25ZM19 1.74999L19.6708 1.41458L19 0.072937L18.3292 1.41458L19 1.74999ZM17.9167 3.91666L18.2521 4.58748L18.4757 4.47567L18.5875 4.25207L17.9167 3.91666ZM15.75 4.99999L15.4146 4.32917L14.0729 4.99999L15.4146 5.67081L15.75 4.99999ZM17.9167 6.08332L18.5875 5.74791L18.4757 5.52431L18.2521 5.4125L17.9167 6.08332ZM19 8.24999L18.3292 8.5854L19 9.92704L19.6708 8.5854L19 8.24999ZM20.0833 6.08332L19.7479 5.4125L19.5243 5.52431L19.4125 5.74791L20.0833 6.08332ZM22.25 4.99999L22.5854 5.67081L23.927 4.99999L22.5854 4.32917L22.25 4.99999ZM20.0833 3.91666L19.4125 4.25207L19.5243 4.47567L19.7479 4.58748L20.0833 3.91666ZM4.5 20.25V3.74999H3V20.25H4.5ZM3.75 4.49999H11.25V2.99999H3.75V4.49999ZM19.5 12.75V20.25H21V12.75H19.5ZM18.3292 2.0854L19.4125 4.25207L20.7542 3.58125L19.6708 1.41458L18.3292 2.0854ZM18.5875 4.25207L19.6708 2.0854L18.3292 1.41458L17.2458 3.58125L18.5875 4.25207ZM16.0854 5.67081L18.2521 4.58748L17.5813 3.24584L15.4146 4.32917L16.0854 5.67081ZM18.2521 5.4125L16.0854 4.32917L15.4146 5.67081L17.5813 6.75414L18.2521 5.4125ZM19.6708 7.91458L18.5875 5.74791L17.2458 6.41873L18.3292 8.5854L19.6708 7.91458ZM19.4125 5.74791L18.3292 7.91458L19.6708 8.5854L20.7542 6.41873L19.4125 5.74791ZM21.9146 4.32917L19.7479 5.4125L20.4187 6.75414L22.5854 5.67081L21.9146 4.32917ZM19.7479 4.58748L21.9146 5.67081L22.5854 4.32917L20.4187 3.24584L19.7479 4.58748ZM14 10.5C14 11.6046 13.1046 12.5 12 12.5V14C13.933 14 15.5 12.433 15.5 10.5H14ZM12 12.5C10.8954 12.5 10 11.6046 10 10.5H8.5C8.5 12.433 10.067 14 12 14V12.5ZM10 10.5C10 9.39542 10.8954 8.49999 12 8.49999V6.99999C10.067 6.99999 8.5 8.56699 8.5 10.5H10ZM12 8.49999C13.1046 8.49999 14 9.39542 14 10.5H15.5C15.5 8.56699 13.933 6.99999 12 6.99999V8.49999ZM8.03597 19.9606C8.29886 18.0068 9.97407 16.5 12 16.5V15C9.21291 15 6.91107 17.0724 6.54937 19.7606L8.03597 19.9606ZM12 16.5C14.0259 16.5 15.7011 18.0068 15.964 19.9606L17.4506 19.7606C17.0889 17.0724 14.7871 15 12 15V16.5ZM20.25 19.5H3.75V21H20.25V19.5Z"
        fill="currentColor" />
    </symbol>
    <!-- lightning-bolt -->
    <symbol id='lightning-bolt' viewBox="0 0 24 24" fill="none">
      <path
        d="M3.86114 11.2515L8.46114 3.25153C8.63954 2.94127 8.97015 2.75 9.32805 2.75H16.3815C17.1249 2.75 17.6084 3.53231 17.2759 4.19721L15.9731 6.80279C15.6407 7.46769 16.1242 8.25 16.8676 8.25H19.3353C20.2262 8.25 20.6724 9.32714 20.0424 9.95711L9.1032 20.8963C8.402 21.5975 7.2177 20.9604 7.41636 19.9889L8.65113 13.9503C8.77791 13.3304 8.30421 12.75 7.67141 12.75H4.72805C3.95903 12.75 3.47781 11.9182 3.86114 11.2515Z"
        stroke="currentColor" stroke-width="1.5" stroke-linecap="round" stroke-linejoin="round" />
    </symbol>
    <!-- square-checklist -->
    <symbol id='square-checklist' viewBox="0 0 24 24" fill="none">
      <path
        d="M7.54297 9.49777L8.66797 10.2478L10.5396 7.75226M13.808 9.00002H16.308M7.54297 15.4989L8.66797 16.2489L10.5396 13.7534M20.25 11.25V5.75C20.25 4.64543 19.3546 3.75 18.25 3.75H5.75C4.64543 3.75 3.75 4.64543 3.75 5.75V18.25C3.75 19.3546 4.64543 20.25 5.75 20.25H11.25M19.3713 19.364C18.1997 20.5355 16.3003 20.5355 15.1287 19.364C13.9571 18.1924 13.9571 16.2929 15.1287 15.1213C16.3003 13.9497 18.1997 13.9497 19.3713 15.1213C20.5429 16.2929 20.5429 18.1924 19.3713 19.364ZM19.3713 19.364L21.25 21.2426"
        stroke="currentColor" stroke-width="1.5" stroke-linecap="round" stroke-linejoin="round" />
    </symbol>
  </defs>
</svg>
