  <svg
                    width="22"
                    height="22"
                    viewBox="0 0 22 22"
                    fill="none"
                    xmlns="http://www.w3.org/2000/svg"
                  >
                    <path
                      d="M17.5722 19.5675C17.5786 19.5756 17.5903 19.5769 17.5983 19.5704C18.8904 18.5138 19.9266 17.1695 20.6267 15.6412C21.3295 14.1072 21.6748 12.4292 21.6358 10.7377C21.5967 9.04617 21.1744 7.38675 20.4017 5.88853C19.6319 4.3959 18.5349 3.10333 17.1955 2.11057C17.1872 2.1044 17.1755 2.10627 17.1695 2.11474L16.8097 2.61813C16.8037 2.62659 16.8055 2.63844 16.8138 2.6446C18.0724 3.57771 19.1033 4.79249 19.8268 6.19521C20.5531 7.60356 20.9501 9.16338 20.9868 10.7534C21.0235 12.3434 20.6989 13.9208 20.0383 15.3627C19.3803 16.799 18.4066 18.0624 17.1925 19.0555C17.1845 19.062 17.1832 19.0739 17.1896 19.0821L17.5722 19.5675Z"
                      fill="#000000"
                    />
                    <path
                      d="M16.3132 1.54326C16.3185 1.53425 16.3155 1.52263 16.3067 1.51733C14.9727 0.719854 13.4859 0.222649 11.9465 0.0593706C10.4009 -0.104564 8.83853 0.0719634 7.3658 0.576939C5.89304 1.08191 4.54446 1.90349 3.4118 2.98574C2.28368 4.06368 1.39612 5.37502 0.809011 6.83119C0.805108 6.84087 0.809684 6.85193 0.819213 6.85589L1.38576 7.09064C1.39531 7.0946 1.40616 7.08994 1.41008 7.08026C1.96195 5.71189 2.79611 4.47959 3.85626 3.4666C4.92097 2.44928 6.18866 1.677 7.57302 1.20232C8.9574 0.727645 10.426 0.561709 11.8789 0.715806C13.3256 0.869248 14.7228 1.33642 15.9765 2.08572C15.9853 2.09102 15.9968 2.08803 16.002 2.07903L16.3132 1.54326Z"
                      fill="#000000"
                    />
                    <path
                      d="M0.380453 8.1857C0.370508 8.183 0.360306 8.18905 0.357683 8.19914C0.113567 9.14035 -0.00661751 10.1103 0.000280913 11.0836C0.000355927 11.094 0.00877764 11.1024 0.019069 11.1023L0.630942 11.0965C0.641231 11.0964 0.649488 11.0879 0.649416 11.0774C0.643034 10.1633 0.755913 9.25235 0.985096 8.3683C0.987719 8.35818 0.981796 8.34783 0.971848 8.34513L0.380453 8.1857Z"
                      fill="#000000"
                    />
                    <path
                      d="M0.114765 12.465C0.104572 12.4664 0.0974195 12.4759 0.0988044 12.4863C0.295541 13.9574 0.783179 15.3727 1.53241 16.6469C2.2848 17.9266 3.28535 19.0372 4.47317 19.9114C5.66099 20.7856 7.01133 21.4051 8.44214 21.7321C9.86689 22.0578 11.3418 22.0868 12.778 21.8175C12.7881 21.8156 12.7948 21.8057 12.7929 21.7955L12.6811 21.1838C12.6792 21.1736 12.6695 21.1668 12.6594 21.1687C11.3097 21.4216 9.92367 21.3943 8.58478 21.0882C7.23984 20.7808 5.97051 20.1985 4.85395 19.3767C3.7374 18.555 2.79689 17.511 2.08962 16.3081C1.38556 15.1107 0.927232 13.7807 0.742198 12.3983C0.74081 12.3879 0.731431 12.3806 0.721229 12.382L0.114765 12.465Z"
                      fill="#000000"
                    />
                    <path
                      d="M13.8642 21.5346C13.8671 21.5446 13.8775 21.5504 13.8873 21.5474C14.8318 21.2631 15.7337 20.849 16.568 20.3167C16.5767 20.3111 16.5793 20.2994 16.5738 20.2906L16.2478 19.7642C16.2423 19.7554 16.2308 19.7527 16.2221 19.7583C15.4384 20.2582 14.5913 20.6471 13.7043 20.9143C13.6944 20.9172 13.6888 20.9278 13.6917 20.9378L13.8642 21.5346Z"
                      fill="#000000"
                    />
                    <path
                      d="M18.59 16.4748C15.614 20.8362 9.72285 21.9198 5.4317 18.8952C1.14051 15.8706 0.0742711 9.88307 3.0502 5.52168C6.02613 1.16028 11.9173 0.0766147 16.2085 3.10124C20.4997 6.12585 21.5659 12.1134 18.59 16.4748ZM4.45749 6.51361C2.02057 10.0851 2.89368 14.9881 6.40763 17.4649C9.92158 19.9417 14.7457 19.0543 17.1827 15.4829C19.6196 11.9114 18.7465 7.00835 15.2325 4.53156C11.7186 2.05475 6.89442 2.94214 4.45749 6.51361Z"
                      fill="#000000"
                    />
                  </svg>